<svg xmlns="http://www.w3.org/2000/svg" xmlns:xlink="http://www.w3.org/1999/xlink" width="83" zoomAndPan="magnify" viewBox="0 0 62.25 43.499999" height="58" preserveAspectRatio="xMidYMid meet" version="1.0"><defs><clipPath id="479577711e"><path d="M 0 0.0117188 L 60.769531 0.0117188 L 60.769531 42.992188 L 0 42.992188 Z M 0 0.0117188 " clip-rule="nonzero"/></clipPath></defs><g clip-path="url(#479577711e)"><path fill="#2a375e" d="M 1.296875 0.0117188 C 0.59375 0.0117188 0.03125 0.578125 0.03125 1.277344 L 0.03125 20.238281 L 19.074219 20.238281 C 19.707031 14.558594 24.527344 10.125 30.371094 10.125 C 36.21875 10.125 41.039062 14.558594 41.671875 20.238281 L 60.710938 20.238281 L 60.710938 1.277344 C 60.710938 0.578125 60.148438 0.0117188 59.449219 0.0117188 Z M 30.371094 12.652344 C 25.484375 12.652344 21.523438 16.613281 21.523438 21.503906 C 21.523438 26.390625 25.484375 30.351562 30.371094 30.351562 C 35.261719 30.351562 39.222656 26.390625 39.222656 21.503906 C 39.222656 16.613281 35.261719 12.652344 30.371094 12.652344 Z M 0.03125 22.765625 L 0.03125 41.730469 C 0.03125 42.425781 0.59375 42.992188 1.296875 42.992188 L 59.449219 42.992188 C 60.148438 42.992188 60.710938 42.425781 60.710938 41.730469 L 60.710938 22.765625 L 41.671875 22.765625 C 41.039062 28.445312 36.21875 32.878906 30.371094 32.878906 C 24.527344 32.878906 19.707031 28.445312 19.074219 22.765625 Z M 0.03125 22.765625 " fill-opacity="1" fill-rule="nonzero"/></g></svg>