<svg xmlns="http://www.w3.org/2000/svg" xmlns:xlink="http://www.w3.org/1999/xlink" width="200" zoomAndPan="magnify" viewBox="0 0 150 74.999997" height="100" preserveAspectRatio="xMidYMid meet" version="1.0"><defs><clipPath id="1ec9930b73"><path d="M 116 16 L 148 16 L 148 43 L 116 43 Z M 116 16 " clip-rule="nonzero"/></clipPath><clipPath id="c802681366"><path d="M 61.191406 -38.5 L 150.089844 27.964844 L 86.765625 112.660156 L -2.132812 46.195312 Z M 61.191406 -38.5 " clip-rule="nonzero"/></clipPath><clipPath id="b352a80c88"><path d="M 61.191406 -38.5 L 150.089844 27.964844 L 86.765625 112.660156 L -2.132812 46.195312 Z M 61.191406 -38.5 " clip-rule="nonzero"/></clipPath><clipPath id="0e2492e6a5"><path d="M 61.191406 -38.5 L 150.089844 27.964844 L 86.765625 112.660156 L -2.132812 46.195312 Z M 61.191406 -38.5 " clip-rule="nonzero"/></clipPath><clipPath id="f9e6a807fd"><path d="M 3 12 L 116 12 L 116 61 L 3 61 Z M 3 12 " clip-rule="nonzero"/></clipPath><clipPath id="1ef1d53543"><path d="M 61.191406 -38.5 L 150.089844 27.964844 L 86.765625 112.660156 L -2.132812 46.195312 Z M 61.191406 -38.5 " clip-rule="nonzero"/></clipPath><clipPath id="2414b5da71"><path d="M 61.191406 -38.5 L 150.089844 27.964844 L 86.765625 112.660156 L -2.132812 46.195312 Z M 61.191406 -38.5 " clip-rule="nonzero"/></clipPath><clipPath id="4aac4c85fa"><path d="M 61.191406 -38.5 L 150.089844 27.964844 L 86.765625 112.660156 L -2.132812 46.195312 Z M 61.191406 -38.5 " clip-rule="nonzero"/></clipPath></defs><g clip-path="url(#1ec9930b73)"><g clip-path="url(#c802681366)"><g clip-path="url(#b352a80c88)"><g clip-path="url(#0e2492e6a5)"><path fill="#2f3030" d="M 140.976562 30.988281 C 139.804688 31.136719 138.617188 31.175781 137.40625 31.191406 C 136.75 31.199219 136.144531 31.554688 135.820312 32.128906 L 134.832031 33.882812 L 134.847656 33.90625 C 135.699219 33.847656 135.804688 35.417969 135.234375 35.800781 C 134.835938 36.0625 134.097656 35.972656 133.640625 36.003906 C 133.636719 36.003906 133.632812 36.007812 133.628906 36.011719 L 132.640625 37.761719 C 132.640625 37.761719 132.644531 37.78125 132.652344 37.785156 C 133.347656 37.863281 133.273438 39.082031 132.933594 39.46875 C 132.570312 39.882812 131.964844 39.828125 131.460938 39.863281 C 131.457031 39.867188 131.453125 39.867188 131.449219 39.871094 L 130.148438 42.175781 C 130.035156 42.378906 129.742188 42.578125 129.511719 42.613281 L 128.636719 42.742188 C 128.398438 42.777344 128.226562 42.613281 128.253906 42.378906 L 129.382812 31.636719 C 129.402344 31.453125 129.257812 31.296875 129.070312 31.296875 C 126.722656 31.328125 124.523438 31.355469 123.019531 31.378906 C 122.945312 31.378906 122.878906 31.417969 122.835938 31.476562 C 122.460938 32.039062 122.085938 32.597656 121.707031 33.160156 C 121.425781 33.578125 121.160156 34.011719 120.863281 34.417969 C 120.59375 34.789062 120.316406 35.230469 119.820312 35.296875 C 119.398438 35.351562 118.960938 35.351562 118.539062 35.378906 C 118.203125 35.402344 117.859375 35.390625 117.6875 35.050781 C 117.519531 34.71875 117.730469 34.269531 117.828125 33.929688 C 117.953125 33.464844 118.085938 33.003906 118.210938 32.539062 C 118.386719 31.90625 118.5625 31.269531 118.738281 30.632812 C 118.761719 30.542969 118.699219 30.449219 118.601562 30.441406 C 118.261719 30.414062 117.921875 30.402344 117.578125 30.382812 C 117.28125 30.363281 116.929688 30.378906 116.652344 30.253906 C 116.316406 30.097656 116.140625 29.574219 116.476562 29.324219 C 116.703125 29.152344 117.011719 29.167969 117.28125 29.113281 C 117.53125 29.0625 117.785156 29.007812 118.035156 28.953125 C 118.136719 28.929688 118.234375 28.910156 118.335938 28.886719 C 118.429688 28.867188 118.480469 28.765625 118.441406 28.679688 C 118.253906 28.253906 118.0625 27.828125 117.871094 27.398438 C 117.722656 27.058594 117.578125 26.714844 117.417969 26.375 C 117.246094 26.007812 117.050781 25.628906 116.925781 25.246094 C 116.800781 24.855469 117.074219 24.460938 117.46875 24.425781 C 117.84375 24.390625 118.21875 24.371094 118.589844 24.335938 C 118.820312 24.3125 119.0625 24.304688 119.289062 24.359375 C 119.558594 24.421875 119.710938 24.570312 119.90625 24.75 C 120.328125 25.152344 120.683594 25.59375 121.066406 26.023438 C 121.441406 26.445312 121.820312 26.859375 122.199219 27.277344 C 122.25 27.332031 122.320312 27.359375 122.394531 27.347656 C 123.851562 27.164062 126.121094 26.875 128.566406 26.558594 C 128.746094 26.535156 128.871094 26.359375 128.824219 26.183594 L 126.457031 16.601562 C 126.398438 16.371094 126.546875 16.183594 126.785156 16.1875 L 127.941406 16.210938 C 128.179688 16.214844 128.5 16.371094 128.648438 16.5625 L 129.859375 18.117188 C 129.859375 18.117188 129.871094 18.125 129.875 18.125 C 130.078125 18.109375 130.285156 18.09375 130.488281 18.082031 C 130.792969 18.058594 131.15625 18.015625 131.421875 18.199219 C 131.902344 18.53125 132.019531 19.808594 131.359375 20.011719 C 131.351562 20.015625 131.347656 20.027344 131.351562 20.035156 L 132.597656 21.632812 C 132.597656 21.632812 132.605469 21.640625 132.609375 21.640625 C 133.105469 21.605469 133.695312 21.46875 134.113281 21.820312 C 134.503906 22.152344 134.757812 23.34375 134.097656 23.53125 C 134.089844 23.535156 134.082031 23.546875 134.089844 23.554688 L 135.070312 24.808594 C 135.472656 25.328125 136.121094 25.597656 136.773438 25.511719 C 138.613281 25.277344 140.46875 25.046875 142.328125 25.140625 C 143.816406 25.214844 146.691406 25.410156 147.484375 26.945312 C 148.816406 29.53125 142.53125 30.800781 140.972656 30.996094 Z M 140.976562 30.988281 " fill-opacity="1" fill-rule="nonzero"/></g></g></g></g><g clip-path="url(#f9e6a807fd)"><g clip-path="url(#1ef1d53543)"><g clip-path="url(#2414b5da71)"><g clip-path="url(#4aac4c85fa)"><path fill="#2f3030" d="M 4.125 50.867188 C 3.984375 50.757812 3.90625 50.574219 3.945312 50.390625 C 4.226562 49.058594 4.496094 47.847656 4.769531 46.691406 C 4.828125 46.433594 5.082031 46.28125 5.339844 46.339844 C 5.59375 46.402344 5.75 46.65625 5.691406 46.910156 C 5.417969 48.0625 5.152344 49.261719 4.871094 50.589844 C 4.816406 50.84375 4.566406 51.003906 4.308594 50.949219 C 4.242188 50.933594 4.179688 50.90625 4.125 50.867188 Z M 5.878906 43.511719 C 5.726562 43.398438 5.652344 43.203125 5.703125 43.007812 C 6.050781 41.746094 6.417969 40.519531 6.789062 39.367188 C 6.871094 39.117188 7.136719 38.984375 7.386719 39.066406 C 7.636719 39.148438 7.773438 39.417969 7.691406 39.664062 C 7.320312 40.804688 6.957031 42.019531 6.617188 43.265625 C 6.546875 43.515625 6.285156 43.664062 6.035156 43.59375 C 5.976562 43.578125 5.921875 43.550781 5.875 43.519531 Z M 35.394531 57.910156 L 35.335938 57.867188 C 35.125 57.710938 35.085938 57.410156 35.242188 57.203125 C 35.398438 56.992188 35.691406 56.953125 35.902344 57.109375 L 35.957031 57.152344 C 36.894531 57.855469 37.953125 58.414062 39.105469 58.8125 C 39.351562 58.898438 39.484375 59.167969 39.398438 59.414062 C 39.3125 59.660156 39.042969 59.789062 38.796875 59.703125 C 37.554688 59.273438 36.410156 58.664062 35.394531 57.90625 Z M 32.730469 55.140625 C 32.691406 55.109375 32.65625 55.074219 32.625 55.03125 C 31.894531 53.980469 31.300781 52.808594 30.863281 51.542969 C 30.777344 51.292969 30.910156 51.027344 31.15625 50.941406 C 31.402344 50.855469 31.671875 50.988281 31.757812 51.234375 C 32.167969 52.417969 32.722656 53.515625 33.402344 54.492188 C 33.550781 54.707031 33.496094 55 33.285156 55.148438 C 33.113281 55.269531 32.886719 55.257812 32.730469 55.140625 Z M 8.21875 36.332031 C 8.054688 36.207031 7.980469 35.984375 8.0625 35.78125 C 8.53125 34.566406 9.035156 33.390625 9.554688 32.277344 C 9.664062 32.039062 9.949219 31.941406 10.183594 32.050781 C 10.421875 32.160156 10.523438 32.441406 10.414062 32.679688 C 9.902344 33.769531 9.410156 34.929688 8.945312 36.125 C 8.851562 36.367188 8.578125 36.488281 8.332031 36.390625 C 8.289062 36.375 8.253906 36.355469 8.21875 36.328125 Z M 42.375 60.371094 C 42.253906 60.28125 42.175781 60.128906 42.1875 59.964844 C 42.199219 59.703125 42.421875 59.503906 42.683594 59.519531 C 43.890625 59.59375 45.121094 59.515625 46.335938 59.289062 C 46.59375 59.238281 46.84375 59.410156 46.890625 59.667969 C 46.941406 59.921875 46.773438 60.167969 46.511719 60.21875 C 45.21875 60.460938 43.914062 60.542969 42.628906 60.464844 C 42.53125 60.460938 42.445312 60.425781 42.371094 60.371094 Z M 30.246094 48.074219 C 30.140625 47.996094 30.066406 47.878906 30.054688 47.738281 C 29.941406 46.441406 29.980469 45.136719 30.167969 43.855469 C 30.207031 43.597656 30.449219 43.421875 30.707031 43.457031 C 30.964844 43.496094 31.144531 43.738281 31.105469 43.996094 C 30.929688 45.203125 30.890625 46.433594 31 47.65625 C 31.023438 47.917969 30.828125 48.144531 30.570312 48.167969 C 30.449219 48.175781 30.335938 48.140625 30.246094 48.074219 Z M 49.746094 59.003906 C 49.6875 58.957031 49.632812 58.894531 49.597656 58.820312 C 49.492188 58.582031 49.59375 58.300781 49.832031 58.195312 C 50.644531 57.828125 51.414062 57.394531 52.125 56.902344 C 52.40625 56.707031 52.683594 56.503906 52.949219 56.289062 C 53.15625 56.128906 53.453125 56.164062 53.617188 56.371094 C 53.777344 56.574219 53.746094 56.871094 53.539062 57.035156 C 53.253906 57.257812 52.960938 57.476562 52.667969 57.679688 C 51.910156 58.207031 51.085938 58.671875 50.226562 59.058594 C 50.066406 59.132812 49.878906 59.105469 49.746094 59.007812 Z M 11.433594 29.507812 C 11.246094 29.367188 11.1875 29.105469 11.304688 28.894531 C 11.769531 28.078125 12.257812 27.28125 12.757812 26.519531 C 12.949219 26.230469 13.140625 25.945312 13.339844 25.664062 C 13.488281 25.449219 13.785156 25.398438 14 25.546875 C 14.214844 25.699219 14.265625 25.992188 14.117188 26.207031 C 13.925781 26.480469 13.734375 26.761719 13.550781 27.039062 C 13.058594 27.785156 12.582031 28.566406 12.128906 29.363281 C 12 29.589844 11.710938 29.667969 11.480469 29.539062 C 11.464844 29.527344 11.449219 29.515625 11.433594 29.503906 Z M 31.351562 40.667969 C 31.183594 40.542969 31.109375 40.316406 31.191406 40.113281 C 31.660156 38.941406 32.265625 37.789062 32.984375 36.691406 C 33.125 36.472656 33.421875 36.414062 33.636719 36.558594 C 33.851562 36.699219 33.917969 36.996094 33.773438 37.210938 C 33.089844 38.257812 32.511719 39.355469 32.066406 40.46875 C 31.972656 40.710938 31.695312 40.828125 31.453125 40.730469 C 31.414062 40.714844 31.375 40.695312 31.34375 40.671875 Z M 55.652344 54.398438 C 55.652344 54.398438 55.640625 54.386719 55.632812 54.382812 C 55.433594 54.21875 55.402344 53.917969 55.570312 53.71875 C 55.757812 53.492188 55.945312 53.253906 56.121094 53.015625 C 56.667969 52.285156 57.179688 51.496094 57.632812 50.667969 C 57.757812 50.4375 58.042969 50.355469 58.273438 50.480469 C 58.503906 50.605469 58.589844 50.894531 58.460938 51.125 C 57.988281 51.992188 57.453125 52.820312 56.878906 53.585938 C 56.691406 53.835938 56.496094 54.085938 56.300781 54.324219 C 56.140625 54.519531 55.855469 54.550781 55.652344 54.402344 Z M 15.769531 23.335938 C 15.769531 23.335938 15.75 23.320312 15.742188 23.316406 C 15.546875 23.144531 15.523438 22.84375 15.691406 22.648438 C 16.535156 21.679688 17.429688 20.753906 18.355469 19.898438 C 18.550781 19.722656 18.847656 19.734375 19.027344 19.925781 C 19.203125 20.117188 19.191406 20.417969 19 20.59375 C 18.101562 21.421875 17.230469 22.324219 16.410156 23.269531 C 16.246094 23.457031 15.96875 23.484375 15.769531 23.335938 Z M 35.441406 34.367188 C 35.429688 34.359375 35.414062 34.347656 35.402344 34.332031 C 35.207031 34.15625 35.199219 33.855469 35.378906 33.664062 C 36.238281 32.753906 37.191406 31.878906 38.21875 31.074219 C 38.421875 30.914062 38.71875 30.949219 38.882812 31.15625 C 39.042969 31.363281 39.007812 31.660156 38.804688 31.820312 C 37.816406 32.59375 36.894531 33.433594 36.066406 34.316406 C 35.898438 34.492188 35.628906 34.511719 35.441406 34.371094 Z M 59.296875 47.820312 C 59.136719 47.699219 59.0625 47.484375 59.132812 47.285156 C 59.535156 46.132812 59.855469 44.929688 60.085938 43.707031 C 60.132812 43.449219 60.378906 43.285156 60.636719 43.332031 C 60.894531 43.378906 61.0625 43.628906 61.015625 43.886719 C 60.777344 45.15625 60.445312 46.40625 60.027344 47.601562 C 59.941406 47.847656 59.671875 47.976562 59.421875 47.890625 C 59.375 47.871094 59.332031 47.851562 59.292969 47.824219 Z M 21.316406 18.222656 C 21.28125 18.195312 21.246094 18.164062 21.214844 18.121094 C 21.0625 17.910156 21.109375 17.613281 21.320312 17.460938 C 22.371094 16.699219 23.464844 16.011719 24.5625 15.414062 C 24.792969 15.289062 25.078125 15.375 25.203125 15.605469 C 25.328125 15.835938 25.246094 16.121094 25.015625 16.246094 C 23.949219 16.824219 22.894531 17.492188 21.875 18.230469 C 21.703125 18.355469 21.476562 18.347656 21.3125 18.226562 Z M 41.355469 29.710938 C 41.308594 29.671875 41.265625 29.625 41.230469 29.570312 C 41.101562 29.34375 41.175781 29.054688 41.402344 28.921875 C 41.519531 28.855469 41.636719 28.785156 41.753906 28.71875 C 42.742188 28.160156 43.785156 27.660156 44.851562 27.226562 C 45.089844 27.128906 45.367188 27.242188 45.46875 27.488281 C 45.566406 27.730469 45.453125 28.003906 45.207031 28.105469 C 44.179688 28.523438 43.175781 29.007812 42.21875 29.542969 C 42.105469 29.609375 41.992188 29.675781 41.875 29.742188 C 41.707031 29.839844 41.503906 29.820312 41.355469 29.710938 Z M 60.691406 40.417969 C 60.570312 40.328125 60.492188 40.183594 60.5 40.019531 C 60.550781 38.789062 60.515625 37.539062 60.394531 36.308594 C 60.367188 36.046875 60.558594 35.816406 60.820312 35.789062 C 61.078125 35.765625 61.3125 35.957031 61.335938 36.21875 C 61.464844 37.496094 61.5 38.789062 61.449219 40.0625 C 61.441406 40.320312 61.21875 40.527344 60.957031 40.511719 C 60.859375 40.507812 60.769531 40.472656 60.695312 40.417969 Z M 27.945312 14.644531 C 27.875 14.59375 27.820312 14.519531 27.785156 14.429688 C 27.695312 14.183594 27.820312 13.914062 28.066406 13.820312 C 29.285156 13.371094 30.53125 13.023438 31.773438 12.78125 C 32.03125 12.730469 32.28125 12.898438 32.332031 13.152344 C 32.382812 13.410156 32.214844 13.660156 31.960938 13.707031 C 30.769531 13.9375 29.570312 14.277344 28.398438 14.710938 C 28.238281 14.769531 28.070312 14.738281 27.945312 14.644531 Z M 48.339844 26.863281 C 48.253906 26.800781 48.191406 26.710938 48.164062 26.601562 C 48.097656 26.347656 48.25 26.089844 48.503906 26.027344 C 49.757812 25.714844 51.03125 25.484375 52.292969 25.351562 C 52.550781 25.324219 52.785156 25.515625 52.8125 25.773438 C 52.84375 26.035156 52.652344 26.269531 52.394531 26.292969 C 51.175781 26.421875 49.945312 26.640625 48.738281 26.949219 C 48.59375 26.984375 48.449219 26.949219 48.339844 26.867188 Z M 59.957031 32.910156 C 59.871094 32.847656 59.804688 32.753906 59.78125 32.640625 C 59.492188 31.433594 59.117188 30.238281 58.675781 29.089844 C 58.578125 28.847656 58.699219 28.574219 58.945312 28.476562 C 59.1875 28.386719 59.460938 28.503906 59.558594 28.75 C 60.019531 29.941406 60.40625 31.175781 60.703125 32.425781 C 60.761719 32.679688 60.605469 32.933594 60.351562 32.992188 C 60.207031 33.027344 60.066406 32.992188 59.957031 32.910156 Z M 35.34375 13.210938 C 35.230469 13.128906 35.15625 12.996094 35.152344 12.84375 C 35.144531 12.582031 35.351562 12.367188 35.613281 12.359375 C 36.886719 12.332031 38.179688 12.410156 39.464844 12.589844 C 39.726562 12.628906 39.90625 12.867188 39.867188 13.125 C 39.832031 13.382812 39.59375 13.5625 39.335938 13.527344 C 38.101562 13.351562 36.859375 13.273438 35.636719 13.304688 C 35.527344 13.308594 35.425781 13.273438 35.339844 13.210938 Z M 55.84375 26.09375 C 55.722656 26.003906 55.644531 25.855469 55.65625 25.691406 C 55.667969 25.429688 55.886719 25.230469 56.148438 25.246094 C 56.375 25.257812 56.601562 25.269531 56.828125 25.289062 C 56.28125 24.359375 55.679688 23.46875 55.027344 22.632812 C 54.867188 22.425781 54.902344 22.125 55.109375 21.96875 C 55.316406 21.808594 55.613281 21.847656 55.773438 22.054688 C 56.554688 23.058594 57.273438 24.136719 57.90625 25.265625 C 57.933594 25.3125 57.949219 25.359375 57.957031 25.40625 C 58.640625 25.496094 59.316406 25.613281 59.976562 25.761719 C 60.230469 25.816406 60.390625 26.070312 60.335938 26.324219 C 60.277344 26.578125 60.027344 26.738281 59.769531 26.683594 C 58.589844 26.414062 57.355469 26.25 56.101562 26.1875 C 56.003906 26.179688 55.914062 26.148438 55.839844 26.09375 Z M 42.8125 14.265625 C 42.65625 14.148438 42.582031 13.945312 42.640625 13.746094 C 42.71875 13.496094 42.984375 13.355469 43.234375 13.433594 C 44.457031 13.808594 45.664062 14.285156 46.828125 14.84375 C 47.066406 14.960938 47.164062 15.238281 47.050781 15.476562 C 46.9375 15.710938 46.65625 15.808594 46.417969 15.695312 C 45.300781 15.15625 44.136719 14.699219 42.960938 14.339844 C 42.90625 14.320312 42.855469 14.296875 42.8125 14.265625 Z M 52.574219 19.917969 C 52.558594 19.90625 52.542969 19.894531 52.53125 19.882812 C 51.882812 19.273438 51.1875 18.691406 50.46875 18.15625 C 50.199219 17.953125 49.917969 17.75 49.632812 17.558594 C 49.417969 17.40625 49.359375 17.113281 49.507812 16.902344 C 49.65625 16.6875 49.949219 16.632812 50.164062 16.777344 C 50.457031 16.980469 50.746094 17.183594 51.027344 17.394531 L 51.035156 17.398438 C 51.78125 17.960938 52.503906 18.566406 53.175781 19.195312 C 53.367188 19.375 53.378906 19.671875 53.199219 19.863281 C 53.035156 20.039062 52.761719 20.0625 52.570312 19.917969 Z M 63.191406 27.777344 C 63.019531 27.648438 62.949219 27.414062 63.039062 27.210938 C 63.144531 26.972656 63.421875 26.863281 63.660156 26.96875 C 64.808594 27.46875 65.902344 28.085938 66.910156 28.796875 L 67.035156 28.886719 C 67.253906 29.046875 67.296875 29.332031 67.148438 29.542969 C 66.996094 29.753906 66.703125 29.804688 66.488281 29.652344 L 66.367188 29.5625 C 65.410156 28.890625 64.371094 28.308594 63.28125 27.832031 C 63.246094 27.816406 63.214844 27.796875 63.1875 27.777344 Z M 72.292969 34.515625 L 72.285156 34.511719 C 71.359375 33.804688 70.476562 33.015625 69.621094 32.25 L 69.371094 32.03125 C 69.175781 31.855469 69.160156 31.558594 69.332031 31.363281 C 69.503906 31.167969 69.804688 31.148438 70 31.328125 L 70.246094 31.546875 C 71.089844 32.296875 71.960938 33.074219 72.859375 33.761719 C 73.066406 33.917969 73.109375 34.21875 72.949219 34.421875 C 72.796875 34.632812 72.496094 34.667969 72.292969 34.515625 Z M 75.535156 36.460938 C 75.363281 36.332031 75.296875 36.101562 75.382812 35.894531 C 75.488281 35.65625 75.761719 35.542969 76.003906 35.648438 C 77.09375 36.121094 78.277344 36.457031 79.523438 36.65625 C 79.78125 36.695312 79.957031 36.9375 79.917969 37.195312 C 79.875 37.453125 79.636719 37.628906 79.378906 37.585938 C 78.058594 37.378906 76.796875 37.019531 75.632812 36.515625 C 75.597656 36.5 75.566406 36.480469 75.535156 36.460938 Z M 82.941406 37.695312 C 82.835938 37.613281 82.761719 37.484375 82.75 37.335938 C 82.738281 37.078125 82.941406 36.855469 83.203125 36.84375 C 84.363281 36.792969 85.605469 36.644531 86.886719 36.402344 C 87.144531 36.355469 87.394531 36.523438 87.445312 36.78125 C 87.492188 37.035156 87.328125 37.285156 87.070312 37.335938 C 85.742188 37.582031 84.457031 37.738281 83.246094 37.789062 C 83.132812 37.796875 83.027344 37.757812 82.941406 37.695312 Z M 90.371094 36.351562 C 90.292969 36.289062 90.230469 36.207031 90.199219 36.105469 C 90.125 35.855469 90.265625 35.59375 90.519531 35.519531 C 91.648438 35.1875 92.8125 34.796875 94.074219 34.328125 C 94.316406 34.234375 94.589844 34.359375 94.679688 34.605469 C 94.773438 34.851562 94.648438 35.121094 94.402344 35.210938 C 93.121094 35.6875 91.941406 36.085938 90.789062 36.425781 C 90.640625 36.46875 90.488281 36.4375 90.371094 36.351562 Z M 97.519531 33.882812 C 97.445312 33.828125 97.386719 33.75 97.351562 33.648438 C 97.273438 33.402344 97.410156 33.136719 97.65625 33.054688 C 98.859375 32.667969 100.054688 32.324219 101.316406 32 C 101.566406 31.9375 101.828125 32.085938 101.890625 32.339844 C 101.957031 32.59375 101.808594 32.851562 101.554688 32.914062 C 100.316406 33.234375 99.136719 33.574219 97.949219 33.953125 C 97.796875 34.003906 97.640625 33.972656 97.519531 33.882812 Z M 104.839844 31.992188 C 104.75 31.925781 104.683594 31.824219 104.660156 31.707031 C 104.605469 31.453125 104.769531 31.203125 105.023438 31.152344 C 106.179688 30.914062 107.40625 30.691406 108.761719 30.464844 C 109.019531 30.421875 109.265625 30.59375 109.308594 30.851562 C 109.355469 31.109375 109.179688 31.355469 108.921875 31.398438 C 107.578125 31.625 106.363281 31.847656 105.21875 32.078125 C 105.082031 32.105469 104.945312 32.070312 104.839844 31.992188 Z M 112.296875 30.726562 C 112.199219 30.652344 112.132812 30.542969 112.113281 30.414062 C 112.074219 30.15625 112.25 29.917969 112.511719 29.878906 C 113.207031 29.777344 113.914062 29.675781 114.640625 29.574219 C 114.898438 29.539062 115.140625 29.71875 115.179688 29.976562 C 115.214844 30.234375 115.035156 30.472656 114.78125 30.511719 C 114.054688 30.613281 113.34375 30.714844 112.652344 30.816406 C 112.523438 30.832031 112.398438 30.800781 112.300781 30.726562 Z M 112.296875 30.726562 " fill-opacity="1" fill-rule="nonzero"/></g></g></g></g></svg>