<svg xmlns="http://www.w3.org/2000/svg" xmlns:xlink="http://www.w3.org/1999/xlink" width="112" zoomAndPan="magnify" viewBox="0 0 84 83.999999" height="112" preserveAspectRatio="xMidYMid meet" version="1.0"><defs><g/><clipPath id="0426836bc9"><path d="M 8 8.398438 L 73 8.398438 L 73 72.898438 L 8 72.898438 Z M 8 8.398438 " clip-rule="nonzero"/></clipPath><clipPath id="5d2ca2bbbf"><path d="M 77 19 L 77.90625 19 L 77.90625 20 L 77 20 Z M 77 19 " clip-rule="nonzero"/></clipPath><clipPath id="668e0df1a9"><path d="M 76 19 L 77.90625 19 L 77.90625 20 L 76 20 Z M 76 19 " clip-rule="nonzero"/></clipPath><clipPath id="85fdcc7c85"><path d="M 77 19 L 77.90625 19 L 77.90625 20 L 77 20 Z M 77 19 " clip-rule="nonzero"/></clipPath><clipPath id="8751461005"><path d="M 76 19 L 77.90625 19 L 77.90625 20 L 76 20 Z M 76 19 " clip-rule="nonzero"/></clipPath><clipPath id="74366cc691"><path d="M 5.90625 59 L 6 59 L 6 60 L 5.90625 60 Z M 5.90625 59 " clip-rule="nonzero"/></clipPath></defs><g clip-path="url(#0426836bc9)"><path fill="#004aad" d="M 27.480469 30.042969 C 27.546875 29.753906 27.664062 29.65625 27.824219 29.53125 L 27.421875 29.441406 Z M 27.832031 29.53125 L 27.839844 29.511719 L 27.824219 29.53125 Z M 58.015625 19.726562 L 58.203125 19.722656 L 57.621094 19.476562 Z M 48.117188 25.003906 L 48.253906 25.085938 C 48.289062 25.085938 48.273438 25.0625 48.117188 25.003906 Z M 37.246094 24.5625 C 37.121094 24.5625 37.054688 24.546875 37.003906 24.527344 C 37.003906 24.5625 37.0625 24.582031 37.246094 24.5625 Z M 39.554688 23.820312 L 39.535156 23.820312 Z M 56.949219 18.882812 L 57.058594 18.828125 L 56.722656 18.664062 Z M 58.066406 19.851562 L 58.097656 19.910156 L 58.117188 19.898438 Z M 57.097656 15.113281 L 57.457031 15.394531 L 57.425781 15.125 Z M 61.183594 22.894531 C 60.96875 22.714844 60.761719 22.484375 60.515625 22.234375 L 61.222656 23.101562 C 61.289062 23.121094 61.445312 23.199219 61.183594 22.894531 Z M 57.429688 14.703125 C 57.382812 14.886719 57.796875 15.058594 58.207031 15.335938 L 58.136719 15.285156 C 58.394531 15.171875 57.921875 14.917969 57.429688 14.703125 Z M 54.894531 17.320312 L 54.417969 17.058594 C 54.679688 17.210938 54.757812 17.289062 54.875 17.386719 Z M 54.894531 17.320312 L 54.972656 17.359375 Z M 59.824219 21.324219 C 59.914062 21.449219 60.011719 21.578125 60.113281 21.722656 C 60.050781 21.589844 59.878906 21.339844 59.824219 21.324219 Z M 22.792969 35.9375 L 22.703125 35.804688 L 22.691406 35.96875 Z M 22.570312 36.011719 L 22.597656 36 L 22.601562 35.863281 Z M 30.097656 25.824219 L 30.242188 25.886719 C 30.40625 25.761719 30.542969 25.695312 30.671875 25.648438 C 30.367188 25.707031 30 25.738281 30.097656 25.824219 Z M 21.363281 59.535156 C 21.179688 59.351562 20.953125 59.167969 20.785156 58.96875 C 21.175781 59.363281 21.269531 59.726562 21.363281 59.535156 Z M 42.101562 23.179688 C 41.882812 23.089844 41.632812 23.050781 41.386719 23.121094 L 41.511719 23.152344 C 41.695312 23.148438 41.882812 23.136719 42.101562 23.179688 Z M 48.128906 25.074219 L 47.925781 24.9375 C 47.960938 24.960938 48.019531 25.003906 48.128906 25.074219 Z M 64.335938 21.230469 C 64.722656 21.777344 64.71875 21.597656 64.828125 21.617188 C 64.574219 21.320312 64.289062 21.046875 64.011719 20.757812 L 64.277344 21.320312 Z M 61.253906 23.167969 L 61.429688 23.378906 L 61.460938 23.371094 L 61.222656 23.097656 Z M 42.707031 23.347656 C 42.46875 23.261719 42.269531 23.210938 42.101562 23.179688 C 42.386719 23.296875 42.609375 23.4375 42.707031 23.347656 Z M 55.128906 13.558594 L 55.277344 13.542969 Z M 61.605469 18.664062 C 61.289062 18.367188 61.023438 18.210938 61.316406 18.550781 L 61.5625 18.753906 Z M 58.992188 20.730469 L 59.195312 20.90625 C 58.992188 20.675781 58.867188 20.5 58.628906 20.171875 C 58.257812 19.917969 58.164062 19.886719 58.113281 19.898438 L 59.070312 20.78125 Z M 47.902344 24.898438 C 47.847656 24.878906 47.777344 24.847656 47.664062 24.789062 L 47.925781 24.9375 Z M 60.96875 22.324219 C 60.832031 22.203125 60.683594 22.085938 60.523438 21.984375 C 60.660156 22.097656 60.804688 22.207031 60.96875 22.324219 Z M 61.710938 23.261719 L 61.75 23.277344 L 61.789062 23.265625 C 61.792969 23.1875 61.648438 22.949219 61.804688 23.078125 C 61.515625 22.761719 61.238281 22.527344 60.96875 22.324219 C 61.226562 22.5625 61.453125 22.851562 61.710938 23.261719 Z M 56.273438 19.355469 L 56.890625 19.746094 C 56.878906 19.78125 56.640625 19.652344 56.78125 19.800781 C 56.882812 19.75 57.527344 20.109375 57.898438 20.621094 C 58.40625 20.960938 58.367188 20.425781 58.09375 19.910156 C 58.042969 19.933594 58.023438 19.953125 57.480469 19.605469 C 57.628906 19.78125 58.460938 20.640625 57.992188 20.363281 C 57.324219 19.847656 57.492188 19.890625 57.21875 19.578125 C 57.398438 19.898438 56.257812 19.066406 56.273438 19.355469 Z M 67.964844 41.441406 C 67.933594 41.007812 67.804688 41.25 67.835938 41.234375 C 67.824219 41.5 67.941406 41.402344 67.964844 41.441406 Z M 64.238281 52.179688 C 64.023438 52.597656 63.945312 52.664062 63.820312 52.84375 C 63.785156 53.414062 64.386719 51.679688 64.386719 52.207031 C 63.929688 52.671875 62.871094 55.101562 62.363281 55.28125 C 61.972656 55.871094 62.609375 55.191406 62.21875 55.78125 L 62.046875 55.894531 L 62.035156 56.101562 C 61.765625 56.488281 61.523438 56.597656 61.460938 56.574219 L 61.699219 56.207031 C 61.324219 56.578125 60.863281 57.355469 60.640625 57.632812 L 61.023438 57.21875 C 59.917969 58.8125 58.183594 60.421875 56.84375 61.734375 L 56.992188 61.6875 C 55.9375 62.667969 56.066406 62.363281 54.804688 63.300781 L 54.84375 63.257812 C 54.625 63.496094 54.28125 63.734375 53.910156 63.964844 C 54.210938 63.6875 53.203125 64.230469 53.601562 63.882812 C 52.324219 64.761719 52.996094 64.359375 52.195312 65.050781 L 51.933594 65.0625 C 51.664062 65.296875 51.664062 65.375 50.949219 65.71875 C 51.503906 65.378906 50.429688 65.773438 51.039062 65.375 C 49.453125 65.839844 48.851562 66.511719 48.027344 66.433594 C 47.394531 66.945312 49.429688 66.132812 49.042969 66.320312 C 49.414062 66.292969 48.53125 66.746094 48.015625 66.863281 C 47.503906 67.023438 47.050781 66.777344 45.773438 67.085938 C 45.90625 67.0625 45.90625 67.039062 46.03125 67.015625 C 45.535156 67.03125 45.113281 67.335938 44.488281 67.304688 C 44.183594 67.535156 43.707031 67.417969 43.644531 67.65625 L 44.835938 67.40625 C 44.171875 67.582031 43.5625 67.957031 42.410156 67.941406 C 42.496094 67.886719 42.824219 67.792969 43.050781 67.734375 C 42.710938 67.695312 42.417969 67.851562 42.070312 67.808594 C 42.148438 67.578125 43.542969 67.628906 44.234375 67.316406 C 43.878906 67.296875 42.882812 67.675781 43.214844 67.386719 C 42.726562 67.761719 41.929688 67.488281 41.050781 67.761719 L 41.105469 67.628906 C 40.964844 67.664062 40.679688 67.730469 40.414062 67.730469 L 40.878906 67.550781 C 40.164062 67.707031 39.492188 67.449219 38.808594 67.488281 C 40.246094 67.539062 39.125 67.671875 39.738281 67.777344 C 37.9375 67.894531 38.722656 67.429688 36.734375 67.300781 C 37 67.316406 37.730469 67.480469 37.308594 67.5 C 36.929688 67.453125 36.4375 67.332031 36.21875 67.226562 C 34.914062 67.066406 36.398438 67.394531 35.835938 67.394531 C 35.410156 67.175781 35.179688 67.351562 34.59375 67.292969 L 34.621094 67.160156 C 33.15625 66.757812 34.160156 67.351562 32.851562 66.9375 L 33.464844 66.886719 L 32.761719 66.757812 L 32.941406 66.652344 C 32.179688 66.539062 31.941406 66.460938 31.253906 66.167969 C 31.386719 66.316406 31.078125 66.371094 30.441406 66.144531 C 30.035156 65.910156 30.71875 66.128906 29.828125 65.789062 C 30.066406 65.78125 30.316406 65.792969 30.660156 66.039062 L 30.945312 66.003906 C 30.511719 65.765625 29.8125 65.535156 29.492188 65.417969 C 29.609375 65.464844 29.75 65.535156 29.820312 65.585938 C 29.367188 65.476562 28.929688 65.347656 28.488281 65.199219 C 28.308594 65.0625 28.488281 65.101562 28.65625 65.128906 C 28.402344 65.027344 28.191406 65.011719 27.828125 64.832031 C 27.96875 64.777344 27.992188 64.675781 28.539062 64.871094 C 28.125 64.734375 27.726562 64.558594 27.324219 64.390625 C 27.269531 64.308594 26.800781 63.953125 26.96875 64.003906 C 26.386719 63.589844 25.335938 63.28125 24.601562 62.652344 C 24.554688 62.644531 24.460938 62.597656 24.285156 62.492188 C 23.570312 61.941406 23.035156 61.339844 22.140625 60.734375 L 21.832031 60.179688 C 21.207031 59.628906 22.246094 60.945312 21.199219 60.019531 C 20.449219 59.363281 21.054688 59.640625 20.855469 59.351562 C 20.449219 59.070312 19.707031 58.574219 19.261719 57.761719 C 19.484375 57.96875 19.613281 58.167969 19.804688 58.375 L 19.445312 57.777344 C 20.113281 58.300781 20.453125 58.789062 20.152344 58.199219 C 19.785156 58.386719 18.445312 56.171875 18.125 56.28125 L 18.101562 56.222656 L 16.9375 56.601562 C 17.449219 57.457031 18.855469 58.707031 18.613281 58.878906 C 18.96875 59.3125 19.355469 59.722656 19.75 60.125 L 19.691406 60.125 C 20.414062 60.929688 20.769531 61.105469 21.113281 61.292969 C 21.28125 61.480469 21.113281 61.390625 21.085938 61.394531 C 22.203125 62.503906 22.351562 62.59375 23.519531 63.214844 L 23.550781 63.410156 C 23.867188 63.574219 25.292969 64.910156 26.746094 65.5 C 26.726562 65.503906 26.683594 65.515625 26.566406 65.476562 C 28.136719 66.179688 30.21875 67.589844 31.003906 67.292969 C 31.371094 67.386719 31.757812 67.4375 32.128906 67.511719 C 30.734375 67.054688 32.410156 67.367188 31.851562 67.109375 C 32.40625 67.257812 33.234375 67.671875 32.546875 67.503906 L 32.453125 67.449219 C 32.121094 67.660156 34.195312 68 34.128906 68.148438 C 36.976562 68.738281 39.835938 69.015625 42.578125 68.773438 L 42.246094 68.597656 L 43.195312 68.507812 C 43.445312 68.527344 43.542969 68.632812 42.867188 68.703125 C 43.234375 68.777344 43.996094 68.472656 44 68.414062 C 45.328125 68.277344 43.519531 68.734375 43.925781 68.675781 L 44.472656 68.570312 L 44.34375 68.5625 C 44.773438 68.398438 44.804688 68.335938 45.605469 68.164062 C 46.117188 68.09375 45.894531 68.234375 46.089844 68.203125 C 46.09375 68.214844 46.160156 68.207031 46.398438 68.136719 L 47.570312 67.851562 L 47.0625 67.816406 C 47.527344 67.613281 48.078125 67.53125 47.65625 67.503906 C 48.664062 67.511719 51.820312 66.082031 52.253906 65.867188 C 52.871094 65.4375 53.507812 65.082031 54.289062 64.621094 C 54.078125 64.710938 53.871094 64.625 54.546875 64.230469 C 54.515625 64.707031 55.78125 63.648438 56.453125 63.441406 C 56.109375 63.519531 58.203125 62.019531 57.371094 62.359375 C 57.898438 61.960938 57.488281 62.445312 57.929688 62.191406 C 59.023438 61.070312 60.53125 59.914062 61.695312 58.355469 C 61.679688 58.304688 61.421875 58.5 61.617188 58.136719 C 61.90625 57.929688 62.164062 57.703125 62.433594 57.476562 C 62.636719 57.148438 62.417969 57.035156 62.945312 56.546875 C 62.855469 56.609375 62.726562 56.695312 62.855469 56.472656 C 65.183594 53.445312 66.292969 49.582031 67.386719 45.898438 C 67.195312 46.398438 67.25 46.050781 67.324219 45.660156 C 67.25 45.90625 67.207031 45.628906 67.125 45.671875 C 67.261719 45.15625 67.410156 44.632812 67.53125 44.109375 C 67.378906 43.800781 67.671875 42.386719 67.480469 42.214844 L 67.488281 42.714844 C 67.320312 42.042969 66.960938 43.625 66.691406 43.496094 C 66.871094 44.261719 66.117188 45.367188 66.214844 46.601562 C 66.105469 46.851562 66.171875 46.363281 66.082031 46.492188 C 66.144531 46.8125 66.078125 47.171875 65.859375 47.824219 L 65.847656 47.746094 C 65.367188 49.597656 65 50.355469 64.0625 52.273438 Z M 46.183594 68.125 L 45.988281 68.132812 C 46.398438 68.007812 46.289062 68.066406 46.183594 68.125 Z M 44.265625 13.476562 C 43.890625 13.378906 43.585938 13.308594 43.320312 13.269531 C 43.773438 13.402344 44.125 13.5625 44.265625 13.476562 Z M 42.207031 13.164062 L 42.410156 13.214844 C 42.695312 13.21875 42.980469 13.21875 43.320312 13.273438 C 42.984375 13.171875 42.589844 13.113281 42.207031 13.164062 Z M 19.019531 61.867188 C 18.859375 61.703125 18.660156 61.539062 18.492188 61.367188 C 18.824219 61.757812 18.878906 62.109375 19.019531 61.867188 Z M 24.695312 17.429688 L 24.878906 17.457031 C 25.136719 17.28125 25.347656 17.164062 25.53125 17.078125 C 25.101562 17.226562 24.582031 17.355469 24.695312 17.429688 Z M 52.335938 15.9375 C 52.257812 15.902344 52.148438 15.859375 51.96875 15.769531 L 52.382812 15.988281 Z M 39.347656 13.835938 L 39.324219 13.835938 Z M 52.667969 16.105469 L 52.886719 16.238281 C 52.929688 16.234375 52.910156 16.214844 52.667969 16.105469 Z M 52.691406 16.191406 C 52.601562 16.125 52.496094 16.054688 52.382812 15.988281 C 52.433594 16.015625 52.523438 16.085938 52.691406 16.191406 Z M 67.316406 45.660156 C 67.335938 45.574219 67.359375 45.414062 67.378906 45.136719 C 67.371094 45.265625 67.339844 45.476562 67.316406 45.660156 Z M 67.765625 43.042969 C 67.808594 42.859375 67.828125 42.660156 67.855469 42.46875 L 67.746094 42.835938 Z M 61.699219 56.207031 L 61.769531 56.136719 Z M 67.792969 41.789062 L 67.640625 41.441406 C 67.648438 41.574219 67.652344 41.832031 67.605469 41.925781 Z M 45.984375 24.203125 L 45.96875 24.203125 C 45.707031 24.046875 45.796875 24.097656 45.984375 24.203125 Z M 28.449219 27.683594 L 28.457031 27.742188 Z M 43.054688 67.742188 L 43.113281 67.742188 C 43.386719 67.660156 43.265625 67.679688 43.054688 67.742188 Z M 60.640625 57.632812 L 60.558594 57.722656 Z M 24.578125 62.632812 L 24.601562 62.652344 L 24.648438 62.652344 Z M 24.648438 62.652344 L 24.992188 62.738281 C 24.558594 62.445312 24.714844 62.625 24.648438 62.652344 Z M 55.101562 13.734375 C 55.324219 13.863281 55.527344 13.984375 55.664062 14.023438 C 55.546875 13.960938 55.292969 13.8125 55.101562 13.734375 Z M 24.234375 15.152344 L 24.460938 14.933594 C 24.328125 15.046875 24.269531 15.109375 24.234375 15.152344 Z M 33.6875 10.710938 L 33.902344 10.660156 L 33.785156 10.242188 Z M 13.292969 37.082031 C 13.367188 36.808594 13.445312 36.535156 13.542969 36.265625 C 13.292969 36.847656 13.285156 36.046875 13.285156 35.320312 C 13.183594 35.527344 13.089844 35.703125 13.039062 35.828125 C 13.078125 35.449219 13.117188 35.074219 13.183594 34.699219 C 13.246094 34.570312 13.277344 34.699219 13.304688 34.894531 L 13.316406 34.675781 C 13.476562 34.300781 13.523438 34.535156 13.550781 34.835938 L 13.347656 35.207031 C 13.40625 35.503906 13.476562 35.777344 13.589844 35.742188 C 13.582031 35.664062 13.589844 35.527344 13.613281 35.371094 L 13.664062 35.472656 C 13.695312 35.4375 13.667969 35.320312 13.667969 35.132812 L 13.925781 34.929688 L 13.867188 34.855469 C 14.019531 34.390625 14.175781 33.929688 14.363281 33.480469 C 14.449219 32.4375 14.476562 31.472656 15.0625 29.898438 C 15.023438 30.332031 15.25 30.074219 15.398438 30.164062 C 15.054688 30.511719 14.953125 31.371094 14.652344 32.167969 C 14.820312 31.75 14.863281 31.875 14.855469 31.992188 C 14.960938 31.488281 15.117188 31.003906 15.253906 30.507812 C 15.371094 30.597656 15.476562 30.253906 15.707031 29.921875 C 15.316406 30.074219 16.007812 28.804688 16.242188 28.226562 C 16.347656 28.234375 16.363281 28.414062 15.988281 29.070312 C 16.570312 28.4375 16.183594 27.949219 16.773438 27.335938 C 17 26.914062 17.363281 26.4375 17.320312 26.632812 C 18.011719 25.554688 19.410156 23.75 19.363281 23.480469 L 19.46875 23.878906 C 19.746094 23.152344 20.03125 22.417969 20.371094 21.699219 C 20.386719 21.980469 21.25 21.800781 20.625 22.605469 C 20.851562 22.425781 21.113281 22.179688 21.515625 21.707031 C 21.34375 21.820312 20.941406 21.835938 21.128906 21.632812 C 21.839844 21.292969 21.59375 21.355469 22.410156 20.890625 C 22.15625 21.054688 22.195312 20.597656 22.570312 20.292969 C 22.539062 20.378906 22.800781 20.511719 22.6875 20.648438 C 22.921875 20.316406 23.152344 19.980469 23.410156 19.664062 C 23.214844 19.886719 23.535156 19.910156 23.796875 19.820312 C 23.660156 19.832031 24.605469 19.21875 24.855469 19.023438 L 24.40625 19.246094 C 25.515625 18.535156 25.238281 18.128906 26.40625 17.457031 C 26.289062 17.597656 26.253906 18 26.863281 17.707031 C 27.039062 17.417969 27.6875 16.351562 28.75 15.75 L 29 15.746094 C 29.261719 15.59375 29.53125 15.433594 29.8125 15.296875 C 29.347656 15.722656 28.113281 16.847656 27.464844 17.417969 C 27.9375 17.265625 27.636719 17.453125 28.300781 17.117188 C 28.566406 17.082031 27.992188 17.414062 27.804688 17.511719 C 28.324219 17.28125 28.835938 17.03125 29.375 16.835938 C 29.21875 16.679688 30.503906 16.152344 30.394531 16.039062 C 29.828125 16.3125 29.285156 16.636719 28.742188 16.945312 C 28.59375 16.816406 29.507812 15.988281 30.695312 15.601562 C 31.015625 15.558594 30.589844 16 30.640625 16.046875 C 30.757812 15.917969 31.695312 15.546875 31.8125 15.5625 L 31.355469 15.820312 C 32.023438 15.675781 32.339844 15.226562 33.183594 15.203125 C 33.460938 15.128906 34.0625 15.238281 34.078125 15.121094 C 33.585938 15.011719 33.332031 14.378906 33.601562 14.152344 C 33.714844 14.136719 35.144531 14.027344 35.488281 14.101562 C 35.984375 14.191406 34.859375 14.613281 35.28125 14.695312 L 35.636719 14.496094 C 35.933594 14.496094 35.539062 14.675781 36.167969 14.546875 C 36.246094 14.34375 37.484375 14.417969 36.457031 14.347656 C 37.082031 14.234375 37.128906 14.296875 37.871094 14.242188 C 37.621094 14.140625 38.511719 13.761719 39.164062 13.695312 L 39.34375 13.835938 C 40.664062 13.835938 41.367188 13.953125 42.582031 14.070312 C 42.691406 14.121094 43.273438 14.238281 43.011719 14.292969 C 43.191406 14.28125 43.355469 14.238281 43.734375 14.289062 C 44.429688 14.554688 42.898438 14.199219 43.425781 14.472656 C 43.484375 14.375 44.40625 14.4375 44.945312 14.492188 C 44.816406 14.273438 43.722656 14.25 43.1875 14.25 C 43.207031 14.03125 44.179688 13.863281 45.476562 14.019531 C 46.503906 14.179688 45.882812 14.269531 46.070312 14.269531 C 47.929688 14.777344 47.792969 14.28125 49.269531 14.960938 C 49.824219 15.316406 49.199219 15.253906 49.292969 15.402344 C 48.492188 15.164062 48.117188 14.890625 47.5625 14.742188 L 48.210938 15.007812 C 47.9375 14.980469 47.402344 14.859375 47.117188 14.730469 C 47.601562 14.984375 50.222656 15.71875 51.484375 16.515625 C 51.742188 16.578125 52.175781 16.726562 52.007812 16.578125 L 51.570312 16.402344 C 51.234375 16.105469 52.449219 16.625 51.9375 16.320312 C 52.539062 16.523438 53.25 16.722656 53.980469 17.25 L 54.035156 17.488281 C 54.046875 17.433594 53.585938 17.097656 53.34375 17.015625 C 53.703125 17.144531 54.40625 17.902344 54.859375 17.949219 L 54.394531 17.507812 C 54.976562 17.773438 55.757812 18.050781 56.367188 18.582031 C 56.171875 18.226562 56.207031 18.484375 55.855469 17.988281 C 56.132812 18.464844 54.140625 16.851562 54.671875 17.507812 C 54.285156 17.011719 53.859375 16.882812 53.277344 16.351562 C 53.265625 16.421875 53.464844 16.578125 52.882812 16.238281 L 52.726562 16.214844 L 52.6875 16.1875 L 52.714844 16.214844 L 52.726562 16.21875 C 52.855469 16.316406 52.957031 16.40625 52.988281 16.460938 C 52.640625 16.402344 51.683594 15.9375 51.324219 15.847656 C 50.976562 15.660156 51.5 15.863281 51.332031 15.714844 L 50.796875 15.589844 C 50.800781 15.453125 49.894531 14.988281 50.796875 15.285156 L 50.015625 14.953125 C 49.570312 14.710938 48.929688 14.453125 48.507812 14.363281 C 48.128906 14.226562 47.496094 14.210938 47.859375 14.21875 C 47.429688 14.109375 46.992188 14.019531 46.550781 13.945312 L 46.550781 13.910156 C 45.261719 13.574219 43.871094 13.5625 42.402344 13.210938 C 41.957031 13.191406 41.5 13.199219 40.761719 13.148438 L 40.621094 13.035156 C 40.046875 13.046875 38.902344 12.925781 38.667969 13.050781 C 38.03125 12.769531 35.886719 13.1875 34.898438 13.351562 L 34.886719 13.5 C 34.210938 13.625 33.566406 13.78125 32.757812 14.0625 L 32.839844 14.167969 C 32.164062 14.457031 31 14.589844 29.925781 15.03125 C 29.984375 14.960938 30.257812 14.867188 30.46875 14.820312 C 29.039062 15.007812 27.839844 16.125 26.644531 16.53125 C 26.398438 16.722656 26.1875 16.820312 25.984375 16.898438 L 26.046875 16.851562 L 25.933594 16.917969 L 25.523438 17.078125 C 25.652344 17.035156 25.769531 16.992188 25.871094 16.945312 C 25.664062 17.070312 25.363281 17.28125 25.074219 17.5 L 24.871094 17.457031 L 24.804688 17.511719 C 24.476562 17.65625 24.601562 17.71875 24.8125 17.703125 C 24.667969 17.816406 24.550781 17.933594 24.460938 18.03125 C 24.109375 18.019531 23.730469 18.617188 23.285156 18.671875 C 23.15625 18.878906 22.082031 19.722656 21.953125 20.089844 C 21.628906 20.316406 21.332031 20.570312 21.113281 20.859375 L 20.875 20.847656 L 20.410156 21.621094 C 19.972656 21.914062 19.769531 22.035156 20.046875 21.566406 C 19.304688 22.605469 19.394531 22.375 18.832031 23.304688 L 18.78125 23.1875 C 18.539062 23.496094 18.273438 24.0625 18.050781 24.1875 C 17.320312 24.710938 15.566406 27.644531 14.535156 29.609375 C 15 29.34375 13.984375 30.496094 14.199219 30.683594 C 14.070312 30.769531 13.914062 31.042969 13.992188 30.683594 C 13.644531 31.765625 13.269531 32.25 13.253906 33.0625 C 13.140625 33.167969 13.214844 32.796875 13.140625 32.894531 L 13.023438 33.363281 C 12.945312 33.457031 13.003906 33.1875 13.023438 33 C 12.691406 34.125 12.945312 34.304688 13.132812 34.4375 C 12.882812 34.976562 12.832031 35.265625 12.902344 35.707031 C 12.792969 35.894531 12.652344 36.210938 12.765625 35.503906 C 12.648438 35.886719 12.253906 37.921875 12.445312 37.984375 C 12.390625 38.105469 12.378906 38.542969 12.390625 38.652344 C 12.359375 38.953125 12.339844 39.164062 12.324219 39.34375 L 13.199219 39.058594 L 13.265625 39.035156 L 13.355469 39.007812 C 13.335938 37.9375 13.34375 38.054688 13.292969 37.082031 Z M 49.378906 14.804688 L 49.351562 14.804688 C 48.925781 14.59375 49.074219 14.671875 49.378906 14.804688 Z M 21.960938 20.09375 L 21.945312 20.167969 C 21.914062 20.144531 21.835938 20.195312 21.960938 20.09375 Z M 13.910156 33.878906 C 13.910156 34.035156 13.839844 34.253906 13.726562 34.5 C 13.761719 34.3125 13.816406 34.097656 13.910156 33.878906 Z M 23.878906 15.765625 C 24.757812 15.34375 23.9375 15.414062 24.757812 15.0625 C 24.894531 14.855469 24.085938 15.351562 24.234375 15.152344 C 23.792969 15.550781 23.496094 15.664062 23.878906 15.765625 Z M 46.289062 11.082031 C 46.191406 11.136719 45.054688 11.058594 46.09375 11.246094 C 46.195312 11.179688 47.027344 11.300781 46.289062 11.082031 Z M 51.4375 15.621094 C 51.605469 15.734375 51.613281 15.542969 51.699219 15.636719 C 51.972656 15.59375 50.367188 15.214844 51.4375 15.621094 Z M 54.222656 13.285156 L 54.886719 13.707031 C 54.890625 13.667969 54.988281 13.695312 55.101562 13.734375 C 54.679688 13.507812 54.234375 13.222656 54.222656 13.285156 Z M 46.328125 10.4375 L 45.476562 10.339844 C 45.378906 10.390625 45.597656 10.476562 45.914062 10.511719 C 46.125 10.492188 46.441406 10.53125 46.328125 10.4375 Z M 48.265625 11.617188 L 48.671875 11.628906 C 48.460938 11.523438 48.460938 11.472656 48.359375 11.367188 Z M 16.773438 27.332031 L 16.773438 27.335938 L 16.765625 27.34375 Z M 17.320312 26.636719 L 17.320312 26.632812 L 17.222656 26.785156 Z M 20.003906 23.425781 C 20.171875 23.011719 20.339844 22.832031 20.597656 22.632812 L 20.105469 22.625 Z M 13.285156 35.320312 L 13.347656 35.207031 L 13.304688 34.894531 C 13.300781 35.023438 13.285156 35.164062 13.285156 35.320312 Z M 35.660156 14.703125 C 35.464844 14.710938 35.359375 14.707031 35.285156 14.695312 C 35.277344 14.726562 35.371094 14.742188 35.660156 14.703125 Z M 20.605469 22.632812 L 20.625 22.605469 L 20.597656 22.632812 Z M 16.765625 27.347656 C 16.675781 27.496094 16.617188 27.574219 16.621094 27.664062 C 16.652344 27.574219 16.703125 27.464844 16.765625 27.347656 Z M 13.542969 36.265625 C 13.59375 36.144531 13.65625 35.96875 13.730469 35.726562 Z M 13.683594 35.675781 L 13.59375 35.742188 C 13.597656 35.824219 13.621094 35.832031 13.683594 35.675781 Z M 60.035156 21.742188 C 59.8125 21.664062 59.320312 21.269531 59.5 21.636719 C 60.050781 22.175781 59.945312 21.953125 60.300781 22.25 C 59.4375 21.359375 60.59375 22.464844 60.03125 21.761719 C 60.214844 21.921875 60.367188 22.078125 60.515625 22.230469 L 60.117188 21.722656 L 60.132812 21.742188 L 60.136719 21.75 L 60.132812 21.75 L 60.132812 21.769531 L 60.109375 21.757812 L 60.035156 21.742188 C 59.808594 21.457031 60.019531 21.675781 60.109375 21.757812 L 60.132812 21.75 L 60.132812 21.742188 C 59.835938 21.449219 59.507812 21.1875 59.195312 20.90625 C 59.367188 21.109375 59.613281 21.328125 60.035156 21.742188 Z M 53.15625 11.820312 C 53.351562 11.957031 53.382812 11.683594 53.484375 11.804688 C 53.8125 11.710938 51.921875 11.375 53.15625 11.820312 Z M 44.917969 9.359375 C 44.492188 9.21875 44.140625 9.140625 43.828125 9.089844 C 44.351562 9.269531 44.753906 9.488281 44.917969 9.359375 Z M 22.394531 13.851562 L 22.621094 13.921875 C 22.914062 13.707031 23.160156 13.578125 23.382812 13.488281 C 22.863281 13.621094 22.238281 13.726562 22.394531 13.851562 Z M 57.183594 13.734375 C 56.992188 13.625 56.800781 13.535156 56.613281 13.4375 C 56.917969 13.605469 57 13.707031 57.128906 13.835938 Z M 25.730469 18.683594 C 26.496094 18.289062 25.808594 18.414062 26.515625 18.089844 C 26.652344 17.921875 25.9375 18.359375 26.085938 18.199219 C 25.671875 18.539062 25.425781 18.648438 25.730469 18.683594 Z M 60.78125 16.683594 L 60.804688 16.75 L 60.839844 16.738281 Z M 54.207031 12.15625 C 54.113281 12.117188 53.988281 12.0625 53.78125 11.964844 C 53.953125 12.046875 54.113281 12.125 54.261719 12.210938 Z M 58.300781 15.398438 L 58.679688 15.664062 C 58.78125 15.621094 58.539062 15.542969 58.300781 15.398438 Z M 43.828125 9.089844 C 43.449219 8.960938 42.996094 8.882812 42.554688 8.96875 L 42.78125 9.035156 C 43.109375 9.035156 43.4375 9.019531 43.828125 9.089844 Z M 54.613281 12.460938 C 54.511719 12.378906 54.394531 12.292969 54.261719 12.214844 C 54.316406 12.253906 54.417969 12.332031 54.613281 12.460938 Z M 63.042969 18.859375 C 62.75 18.8125 62.171875 18.367188 62.351562 18.8125 C 62.972656 19.429688 62.886719 19.15625 63.308594 19.480469 C 62.300781 18.464844 63.660156 19.714844 63.03125 18.886719 C 63.242188 19.066406 63.425781 19.253906 63.59375 19.425781 C 63.4375 19.21875 63.28125 19.019531 63.152344 18.816406 L 63.160156 18.851562 L 63.167969 18.855469 L 63.15625 18.878906 L 63.128906 18.859375 L 63.042969 18.859375 C 62.785156 18.53125 63.035156 18.785156 63.128906 18.859375 L 63.171875 18.855469 L 63.160156 18.851562 C 62.816406 18.515625 62.4375 18.21875 62.074219 17.902344 C 62.273438 18.136719 62.558594 18.386719 63.042969 18.859375 Z M 65.269531 21.265625 L 65.304688 21.300781 Z M 64.382812 20.167969 C 64.121094 19.96875 63.882812 19.703125 63.597656 19.425781 C 63.871094 19.757812 64.140625 20.109375 64.40625 20.429688 C 64.484375 20.4375 64.683594 20.511719 64.382812 20.167969 Z M 65.34375 21.433594 L 65.296875 21.382812 Z M 62.832031 18.347656 C 62.925781 18.496094 63.039062 18.648438 63.15625 18.816406 C 63.085938 18.652344 62.910156 18.359375 62.832031 18.347656 Z M 58.566406 16.3125 C 58.8125 16.441406 59.042969 16.59375 59.28125 16.742188 C 59.265625 16.785156 58.984375 16.65625 59.140625 16.835938 C 59.277344 16.746094 60.039062 17.121094 60.433594 17.746094 C 61.039062 18.109375 61.078125 17.402344 60.804688 16.746094 C 60.742188 16.796875 60.703125 16.832031 60.070312 16.449219 C 60.226562 16.664062 61.15625 17.667969 60.597656 17.375 C 59.824219 16.800781 60.03125 16.824219 59.730469 16.453125 C 59.914062 16.867188 58.589844 15.925781 58.566406 16.3125 Z M 65.296875 21.382812 L 65.269531 21.265625 C 65.148438 21.152344 65.035156 21.074219 64.925781 20.996094 C 65.054688 21.144531 65.175781 21.277344 65.296875 21.382812 Z M 54.589844 12.351562 L 54.84375 12.5 C 54.894531 12.496094 54.867188 12.460938 54.589844 12.351562 Z M 61.835938 17.707031 L 62.074219 17.902344 C 61.847656 17.640625 61.710938 17.417969 61.453125 17.019531 C 61.019531 16.738281 60.902344 16.71875 60.839844 16.738281 C 61.207031 17.078125 61.582031 17.410156 61.933594 17.757812 Z M 64.425781 20.503906 C 64.605469 20.773438 64.761719 20.890625 64.925781 20.996094 C 64.75 20.824219 64.582031 20.640625 64.40625 20.429688 Z M 64.566406 58.199219 L 64.644531 58.117188 Z M 43.484375 71.363281 L 43.554688 71.375 C 43.859375 71.261719 43.722656 71.285156 43.484375 71.363281 Z M 63.347656 59.828125 L 63.273438 59.914062 Z M 22.664062 65.457031 L 23.082031 65.527344 C 22.589844 65.183594 22.753906 65.410156 22.664062 65.457031 Z M 22.582031 65.445312 L 22.613281 65.464844 L 22.664062 65.457031 Z M 72.015625 41.265625 C 71.996094 41.5625 72.175781 41.464844 72.210938 41.503906 C 72.160156 41.003906 71.960938 41.28125 72.015625 41.265625 Z M 71.480469 42.382812 L 71.503906 42.964844 C 71.234375 42.183594 70.730469 43.992188 70.320312 43.832031 C 70.621094 44.714844 69.550781 45.9375 69.78125 47.359375 C 69.644531 47.636719 69.703125 47.082031 69.574219 47.214844 C 69.691406 47.59375 69.613281 48.011719 69.355469 48.746094 L 69.335938 48.648438 C 68.800781 50.753906 68.339844 51.601562 67.253906 53.757812 L 67.507812 53.679688 C 67.261719 54.140625 67.15625 54.21875 67.011719 54.417969 C 67.027344 55.09375 67.648438 53.09375 67.71875 53.730469 C 67.121094 54.214844 66.003906 57.023438 65.328125 57.164062 C 64.882812 57.828125 65.652344 57.09375 65.210938 57.761719 L 64.992188 57.871094 L 65.011719 58.132812 C 64.703125 58.554688 64.402344 58.664062 64.304688 58.625 C 64.390625 58.527344 64.496094 58.320312 64.570312 58.203125 C 64.113281 58.617188 63.597656 59.539062 63.351562 59.832031 L 63.816406 59.363281 C 62.582031 61.1875 60.597656 62.984375 59.117188 64.511719 L 59.300781 64.480469 C 58.136719 65.625 58.234375 65.226562 56.820312 66.308594 L 56.855469 66.253906 C 56.625 66.539062 56.234375 66.828125 55.816406 67.078125 C 56.140625 66.75 54.988281 67.339844 55.417969 66.925781 C 53.992188 67.957031 54.753906 67.488281 53.882812 68.347656 L 53.570312 68.328125 C 53.277344 68.625 53.285156 68.734375 52.480469 69.136719 C 53.097656 68.71875 51.855469 69.148438 52.535156 68.65625 C 50.710938 69.097656 50.085938 70.023438 49.105469 69.8125 C 48.425781 70.496094 50.722656 69.535156 50.292969 69.765625 C 50.722656 69.765625 49.730469 70.324219 49.148438 70.449219 C 48.566406 70.628906 48.007812 70.226562 46.5625 70.574219 C 46.707031 70.542969 46.707031 70.511719 46.855469 70.484375 C 46.285156 70.484375 45.816406 70.886719 45.109375 70.808594 C 44.769531 71.125 44.222656 70.9375 44.160156 71.285156 L 45.511719 70.988281 C 44.761719 71.207031 44.082031 71.722656 42.757812 71.660156 C 42.859375 71.582031 43.230469 71.453125 43.488281 71.375 C 43.101562 71.308594 42.773438 71.53125 42.371094 71.453125 C 42.449219 71.109375 44.042969 71.230469 44.816406 70.8125 C 44.40625 70.757812 43.289062 71.273438 43.65625 70.859375 C 43.109375 71.402344 42.203125 70.96875 41.214844 71.363281 L 41.273438 71.160156 C 41.113281 71.207031 40.785156 71.304688 40.488281 71.304688 L 41.011719 71.039062 C 40.203125 71.265625 39.445312 70.875 38.664062 70.949219 C 40.296875 71 39.027344 71.214844 39.722656 71.363281 C 37.671875 71.570312 38.570312 70.84375 36.332031 70.734375 C 36.632812 70.734375 37.457031 70.953125 36.972656 71.007812 C 36.546875 70.9375 35.996094 70.78125 35.75 70.632812 C 34.265625 70.46875 35.945312 70.871094 35.300781 70.902344 C 34.832031 70.601562 34.5625 70.878906 33.890625 70.839844 L 33.925781 70.632812 C 32.28125 70.148438 33.382812 70.960938 31.914062 70.445312 L 32.613281 70.324219 L 31.820312 70.195312 L 32.042969 70.019531 C 31.164062 69.929688 30.902344 69.835938 30.121094 69.488281 C 30.261719 69.6875 29.898438 69.800781 29.167969 69.546875 C 28.726562 69.246094 29.503906 69.480469 28.492188 69.097656 C 28.773438 69.066406 29.066406 69.042969 29.441406 69.363281 L 29.777344 69.277344 C 29.296875 68.980469 28.492188 68.742188 28.140625 68.605469 C 28.273438 68.664062 28.4375 68.742188 28.503906 68.800781 C 27.992188 68.703125 27.476562 68.574219 26.96875 68.433594 C 26.773438 68.257812 26.980469 68.289062 27.179688 68.320312 C 26.890625 68.199219 26.644531 68.207031 26.222656 68 C 26.410156 67.910156 26.453125 67.753906 27.078125 67.953125 C 26.609375 67.816406 26.144531 67.625 25.679688 67.453125 C 25.628906 67.34375 25.113281 66.925781 25.316406 66.960938 C 24.664062 66.472656 23.429688 66.214844 22.617188 65.476562 C 22.554688 65.464844 22.445312 65.425781 22.242188 65.308594 C 21.4375 64.671875 20.871094 63.964844 19.824219 63.320312 L 19.519531 62.644531 C 18.800781 62.03125 19.925781 63.570312 18.722656 62.539062 C 17.851562 61.820312 18.601562 62.078125 18.390625 61.734375 C 17.90625 61.441406 17.007812 60.925781 16.546875 59.972656 C 16.808594 60.195312 16.949219 60.421875 17.167969 60.652344 L 16.789062 59.949219 C 17.605469 60.5 17.964844 61.058594 17.671875 60.363281 C 17.144531 60.667969 15.734375 58.082031 15.257812 58.292969 L 15.0625 57.796875 C 15.140625 57.921875 15.183594 57.925781 15.261719 58.042969 C 15.09375 57.5625 14.898438 57.460938 14.671875 57.34375 L 13.039062 57.875 C 13.175781 58.035156 13.304688 58.164062 13.402344 58.222656 C 13.109375 59.132812 15.941406 61.175781 15.464844 61.519531 C 15.886719 62.015625 16.328125 62.476562 16.777344 62.945312 L 16.699219 62.953125 C 17.519531 63.882812 17.964844 64.058594 18.378906 64.246094 C 18.558594 64.46875 18.359375 64.378906 18.320312 64.386719 C 19.574219 65.683594 19.753906 65.785156 21.144531 66.4375 L 21.144531 66.695312 C 21.523438 66.855469 23.105469 68.484375 24.800781 69.109375 C 24.78125 69.117188 24.726562 69.136719 24.589844 69.097656 C 26.414062 69.863281 28.730469 71.65625 29.699219 71.148438 C 30.125 71.242188 30.570312 71.292969 31.003906 71.363281 C 29.402344 70.816406 31.339844 71.113281 30.714844 70.800781 C 31.347656 70.945312 32.28125 71.492188 31.492188 71.3125 L 31.375 71.230469 C 30.976562 71.558594 33.371094 71.894531 33.273438 72.132812 C 36.542969 72.800781 39.824219 73.171875 42.972656 72.894531 L 42.582031 72.625 L 43.667969 72.53125 C 43.960938 72.566406 44.082031 72.726562 43.300781 72.796875 C 43.738281 72.929688 44.582031 72.507812 44.59375 72.421875 C 46.125 72.300781 44.0625 72.875 44.515625 72.804688 L 45.152344 72.679688 L 45.003906 72.667969 C 45.492188 72.453125 45.523438 72.34375 46.433594 72.15625 C 47.03125 72.09375 46.777344 72.28125 47.003906 72.242188 C 47.011719 72.265625 47.09375 72.257812 47.359375 72.175781 L 48.710938 71.84375 L 48.109375 71.753906 C 48.667969 71.484375 49.359375 71.425781 48.675781 71.324219 C 49.710938 71.554688 53.542969 69.75 54.0625 69.523438 C 54.75 68.996094 55.480469 68.582031 56.378906 68.066406 C 56.136719 68.160156 55.863281 68 56.636719 67.558594 C 56.671875 68.214844 58.078125 66.945312 58.910156 66.773438 C 58.464844 66.84375 60.914062 65.136719 59.894531 65.457031 C 60.496094 65.015625 60.070312 65.597656 60.585938 65.332031 C 61.808594 64.007812 63.59375 62.734375 64.929688 60.933594 C 64.894531 60.863281 64.574219 61.082031 64.785156 60.640625 C 65.128906 60.421875 65.449219 60.175781 65.78125 59.9375 C 66.011719 59.554688 65.691406 59.378906 66.335938 58.851562 C 66.222656 58.910156 66.054688 58.996094 66.195312 58.738281 C 68.945312 55.296875 70.074219 50.832031 71.480469 46.636719 C 71.222656 47.203125 71.292969 46.804688 71.371094 46.355469 C 71.273438 46.644531 71.1875 46.316406 71.082031 46.363281 C 71.257812 45.773438 71.441406 45.175781 71.609375 44.574219 C 71.367188 44.199219 71.761719 42.589844 71.480469 42.382812 Z M 47.109375 72.132812 L 46.882812 72.125 C 47.351562 71.960938 47.226562 72.046875 47.109375 72.132812 Z M 71.371094 46.34375 C 71.394531 46.242188 71.421875 46.058594 71.441406 45.75 C 71.429688 45.890625 71.394531 46.125 71.371094 46.34375 Z M 71.9375 43.34375 C 71.996094 43.125 72.023438 42.90625 72.0625 42.679688 L 71.90625 43.105469 Z M 71.960938 41.902344 L 71.726562 41.5 C 71.734375 41.652344 71.746094 41.9375 71.675781 42.050781 Z M 17.386719 21.097656 C 17.527344 20.59375 17.726562 20.402344 18.019531 20.171875 L 17.371094 20.085938 Z M 39.265625 10.011719 L 39.242188 10.011719 Z M 13.023438 26.476562 C 13.167969 26.507812 13.21875 26.722656 12.785156 27.464844 C 13.515625 26.785156 12.902344 26.136719 13.621094 25.464844 C 13.878906 24.988281 14.3125 24.445312 14.28125 24.691406 L 14.167969 24.867188 C 14.914062 23.683594 16.652344 21.4375 16.535156 21.054688 C 16.582031 21.074219 16.742188 21.472656 16.75 21.589844 C 16.980469 20.707031 17.238281 19.800781 17.566406 18.914062 C 17.628906 19.289062 18.738281 19.207031 18.058594 20.152344 C 18.324219 19.949219 18.632812 19.683594 19.0625 19.128906 C 18.871094 19.246094 18.347656 19.195312 18.546875 18.960938 C 19.414062 18.628906 19.105469 18.675781 20.085938 18.207031 C 19.777344 18.375 19.75 17.765625 20.171875 17.429688 C 20.160156 17.539062 20.519531 17.765625 20.402344 17.929688 C 20.632812 17.519531 20.875 17.109375 21.140625 16.71875 C 20.921875 16.988281 21.34375 17.070312 21.660156 16.996094 C 21.488281 16.996094 22.582031 16.3125 22.855469 16.085938 L 22.328125 16.320312 C 23.601562 15.523438 23.183594 14.921875 24.507812 14.15625 C 24.402344 14.335938 24.425781 14.898438 25.121094 14.582031 C 25.289062 14.199219 25.921875 12.789062 27.125 12.0625 L 27.421875 12.082031 C 27.71875 11.894531 28.023438 11.703125 28.332031 11.535156 C 27.832031 12.097656 26.507812 13.558594 25.808594 14.265625 C 26.355469 14.113281 26.019531 14.339844 26.765625 13.953125 C 27.085938 13.945312 26.445312 14.339844 26.226562 14.453125 C 26.824219 14.191406 27.410156 13.925781 28.019531 13.707031 C 27.808594 13.460938 29.273438 12.867188 29.125 12.6875 C 28.492188 13.015625 27.890625 13.410156 27.285156 13.777344 C 27.082031 13.570312 28.070312 12.507812 29.429688 12.074219 C 29.796875 12.058594 29.347656 12.652344 29.414062 12.730469 C 29.539062 12.554688 30.59375 12.117188 30.742188 12.144531 L 30.226562 12.472656 C 30.988281 12.332031 31.3125 11.71875 32.292969 11.75 C 32.601562 11.671875 33.300781 11.878906 33.320312 11.703125 C 32.742188 11.492188 32.390625 10.546875 32.6875 10.230469 C 32.8125 10.21875 34.46875 10.160156 34.863281 10.285156 C 35.433594 10.449219 34.167969 11.007812 34.660156 11.160156 L 35.058594 10.882812 C 35.402344 10.890625 34.953125 11.144531 35.667969 10.992188 C 35.757812 10.683594 37.164062 10.839844 35.984375 10.703125 C 36.699219 10.554688 36.753906 10.664062 37.597656 10.59375 C 37.308594 10.425781 38.316406 9.894531 39.054688 9.800781 L 39.261719 10.011719 C 40.777344 10.011719 41.578125 10.179688 42.960938 10.3125 C 43.082031 10.390625 43.738281 10.546875 43.441406 10.632812 C 43.644531 10.617188 43.839844 10.546875 44.261719 10.59375 C 45.042969 10.960938 43.3125 10.5 43.894531 10.886719 C 43.972656 10.730469 45.023438 10.792969 45.636719 10.820312 C 45.507812 10.515625 44.253906 10.535156 43.636719 10.5625 C 43.671875 10.226562 44.796875 9.941406 46.292969 10.089844 C 47.472656 10.25 46.742188 10.425781 46.957031 10.417969 C 49.082031 11.007812 48.964844 10.289062 50.652344 11.128906 C 51.265625 11.582031 50.527344 11.5625 50.621094 11.769531 C 49.703125 11.523438 49.285156 11.160156 48.65625 10.984375 L 49.386719 11.316406 C 49.074219 11.300781 48.449219 11.175781 48.136719 11.007812 C 48.667969 11.34375 51.667969 12.15625 53.089844 13.097656 C 53.398438 13.152344 53.902344 13.300781 53.726562 13.117188 L 53.21875 12.914062 C 52.855469 12.539062 54.246094 13.121094 53.667969 12.75 C 54.371094 12.964844 55.210938 13.144531 56.035156 13.773438 L 56.070312 14.09375 C 56.097656 14.019531 55.574219 13.621094 55.285156 13.546875 C 55.714844 13.667969 56.464844 14.625 57.023438 14.613281 L 56.511719 14.066406 C 57.195312 14.355469 58.128906 14.613281 58.816406 15.238281 C 58.625 14.78125 58.632812 15.136719 58.269531 14.507812 C 58.535156 15.125 56.300781 13.191406 56.855469 14.023438 C 56.457031 13.390625 55.949219 13.289062 55.308594 12.609375 C 55.289062 12.703125 55.511719 12.902344 54.839844 12.5 L 54.652344 12.492188 L 54.609375 12.460938 L 54.644531 12.492188 L 54.652344 12.5 C 54.800781 12.617188 54.910156 12.726562 54.941406 12.792969 C 54.515625 12.777344 53.425781 12.242188 53.007812 12.164062 C 52.609375 11.9375 53.21875 12.15625 53.03125 11.964844 L 52.402344 11.855469 C 52.421875 11.660156 51.394531 11.101562 52.441406 11.414062 L 51.542969 11.03125 C 51.039062 10.726562 50.300781 10.425781 49.816406 10.347656 C 49.378906 10.171875 48.632812 10.210938 49.066406 10.183594 C 48.5625 10.070312 48.058594 9.976562 47.554688 9.898438 L 47.550781 9.855469 C 46.082031 9.457031 44.464844 9.519531 42.78125 9.035156 C 42.269531 9.023438 41.746094 9.050781 40.898438 8.972656 L 40.738281 8.796875 C 40.085938 8.832031 38.765625 8.636719 38.488281 8.824219 C 37.753906 8.398438 35.292969 8.964844 34.148438 9.132812 L 34.144531 9.347656 C 33.363281 9.488281 32.625 9.6875 31.699219 10.03125 L 31.808594 10.199219 C 31.039062 10.5625 29.683594 10.644531 28.453125 11.160156 C 28.511719 11.0625 28.828125 10.960938 29.074219 10.914062 C 27.394531 11.046875 26.085938 12.484375 24.691406 12.878906 C 24.402344 13.117188 24.164062 13.222656 23.917969 13.300781 L 23.992188 13.253906 L 23.863281 13.324219 C 23.707031 13.367188 23.546875 13.421875 23.386719 13.492188 C 23.53125 13.453125 23.675781 13.402344 23.796875 13.363281 C 23.550781 13.5 23.21875 13.75 22.886719 14.007812 L 22.625 13.925781 L 22.550781 13.980469 C 22.160156 14.132812 22.328125 14.234375 22.59375 14.253906 C 22.433594 14.382812 22.296875 14.53125 22.210938 14.660156 C 21.753906 14.578125 21.378906 15.339844 20.820312 15.339844 C 20.695312 15.605469 19.460938 16.5625 19.351562 17.042969 C 18.976562 17.296875 18.621094 17.582031 18.394531 17.929688 L 18.082031 17.871094 C 17.914062 18.175781 17.753906 18.492188 17.609375 18.8125 C 17.078125 19.128906 16.832031 19.253906 17.113281 18.679688 C 16.3125 19.925781 16.386719 19.628906 15.792969 20.738281 L 15.699219 20.585938 C 15.425781 20.933594 15.167969 21.621094 14.890625 21.742188 C 13.980469 22.300781 12.03125 25.6875 10.777344 27.914062 C 11.425781 27.664062 10.097656 28.914062 10.429688 29.160156 C 10.265625 29.253906 10.066406 29.558594 10.125 29.140625 C 9.757812 30.394531 9.261719 30.921875 9.316406 31.878906 C 9.164062 31.992188 9.230469 31.5625 9.128906 31.671875 C 9.121094 31.78125 9.105469 32.101562 9 32.210938 C 8.894531 32.316406 8.960938 31.996094 8.976562 31.785156 C 8.59375 33.078125 8.960938 33.304688 9.253906 33.472656 C 8.929688 34.085938 8.882812 34.421875 9.015625 34.9375 C 8.863281 35.144531 8.675781 35.507812 8.789062 34.6875 C 8.660156 35.132812 8.167969 37.457031 8.453125 37.53125 C 8.367188 37.671875 8.375 38.175781 8.394531 38.296875 C 8.277344 39.324219 8.285156 39.417969 8.261719 40.429688 L 8.316406 40.152344 C 8.417969 40.289062 8.453125 40.4375 8.464844 40.59375 L 9.53125 40.246094 C 9.632812 39.78125 9.714844 39.261719 9.601562 38.816406 C 9.703125 38.574219 9.753906 38.945312 9.867188 38.878906 C 9.769531 37.503906 9.800781 37.699219 9.660156 36.546875 C 9.765625 36.230469 9.867188 35.925781 9.988281 35.625 C 9.660156 36.28125 9.589844 35.355469 9.550781 34.523438 C 9.40625 34.75 9.285156 34.945312 9.214844 35.085938 C 9.246094 34.648438 9.273438 34.214844 9.34375 33.78125 C 9.421875 33.640625 9.480469 33.789062 9.539062 34.019531 L 9.535156 33.78125 C 9.742188 33.347656 9.835938 33.621094 9.90625 33.976562 L 9.628906 34.386719 C 9.734375 34.738281 9.855469 35.054688 10.023438 35.023438 C 10.011719 34.9375 10.011719 34.777344 10.03125 34.601562 L 10.121094 34.71875 C 10.160156 34.683594 10.117188 34.539062 10.101562 34.324219 L 10.464844 34.117188 L 10.363281 34.015625 C 10.558594 33.503906 10.742188 32.984375 10.96875 32.480469 C 11 31.269531 10.925781 30.132812 11.574219 28.324219 C 11.574219 28.84375 11.859375 28.5625 12.085938 28.695312 C 11.640625 29.0625 11.613281 30.074219 11.257812 30.972656 C 11.457031 30.496094 11.535156 30.652344 11.535156 30.785156 C 11.632812 30.210938 11.792969 29.660156 11.929688 29.085938 C 12.109375 29.203125 12.21875 28.808594 12.492188 28.445312 C 11.964844 28.570312 12.78125 27.152344 13.023438 26.476562 Z M 50.792969 10.886719 L 50.765625 10.890625 C 50.28125 10.632812 50.453125 10.722656 50.792969 10.886719 Z M 19.351562 17.042969 L 19.34375 17.144531 C 19.304688 17.113281 19.210938 17.167969 19.351562 17.042969 Z M 10.128906 33.59375 C 10.164062 33.382812 10.230469 33.140625 10.351562 32.886719 C 10.367188 33.074219 10.28125 33.324219 10.128906 33.59375 Z M 13.621094 25.464844 L 13.621094 25.476562 Z M 35.09375 11.183594 C 34.871094 11.195312 34.75 11.175781 34.664062 11.15625 C 34.65625 11.207031 34.761719 11.230469 35.09375 11.183594 Z M 18.039062 20.183594 L 18.054688 20.152344 L 18.015625 20.171875 Z M 9.992188 35.621094 C 10.0625 35.488281 10.136719 35.289062 10.234375 35.011719 Z M 9.550781 34.519531 L 9.632812 34.386719 L 9.542969 34.019531 C 9.546875 34.171875 9.542969 34.335938 9.550781 34.519531 Z M 10.15625 34.949219 L 10.027344 35.023438 C 10.046875 35.121094 10.082031 35.125 10.15625 34.949219 Z M 13.621094 25.476562 C 13.519531 25.652344 13.445312 25.738281 13.464844 25.847656 C 13.492188 25.738281 13.554688 25.609375 13.621094 25.476562 Z M 59.652344 15.457031 L 59.257812 15.292969 L 59.503906 15.550781 Z M 48.476562 25.726562 L 48.375 25.75 Z M 47.863281 25.621094 L 48.230469 25.855469 L 48.355469 25.859375 C 48.117188 25.738281 47.871094 25.578125 47.863281 25.621094 Z M 48.671875 26.023438 C 48.601562 25.984375 48.460938 25.894531 48.355469 25.859375 C 48.480469 25.929688 48.59375 26.003906 48.671875 26.023438 Z M 49.648438 26.632812 L 49.457031 26.644531 L 49.648438 26.796875 Z M 49.035156 26.429688 L 48.78125 26.261719 L 49.128906 26.519531 Z M 44.59375 24.601562 L 44.53125 24.769531 L 44.761719 24.757812 C 44.648438 24.699219 44.648438 24.664062 44.59375 24.601562 Z M 31.257812 26.753906 L 31.371094 26.632812 Z M 36.453125 24.214844 L 36.570312 24.183594 L 36.5 23.90625 Z M 43.328125 24.566406 C 43.386719 24.523438 43.851562 24.574219 43.4375 24.453125 C 43.382812 24.492188 42.753906 24.484375 43.328125 24.566406 Z M 43.472656 24.027344 L 43 23.988281 C 42.9375 24.027344 43.070312 24.078125 43.238281 24.089844 C 43.367188 24.070312 43.539062 24.082031 43.472656 24.027344 Z M 31.074219 27.117188 C 31.570312 26.902344 31.085938 26.902344 31.554688 26.722656 C 31.625 26.605469 31.175781 26.867188 31.257812 26.753906 C 31.007812 26.980469 30.839844 27.03125 31.074219 27.117188 Z M 45.519531 14.695312 C 45.433594 14.722656 44.441406 14.625 45.359375 14.792969 C 45.4375 14.75 46.171875 14.871094 45.519531 14.695312 Z M 34.457031 14.433594 L 34.640625 14.386719 L 34.554688 14.109375 Z M 26.082031 18.199219 L 26.285156 18.023438 Z M 45.527344 14.257812 L 44.789062 14.152344 C 44.699219 14.1875 44.898438 14.257812 45.175781 14.285156 C 45.351562 14.289062 45.628906 14.328125 45.527344 14.257812 Z M 49.609375 25.796875 L 49.242188 25.609375 C 49.414062 25.707031 49.460938 25.765625 49.53125 25.832031 C 49.542969 25.804688 49.5 25.726562 49.609375 25.796875 Z M 47.304688 24.710938 C 47.414062 24.796875 47.445312 24.617188 47.492188 24.691406 C 47.691406 24.621094 46.621094 24.460938 47.304688 24.710938 Z M 49.671875 26.371094 C 49.628906 26.488281 49.875 26.5625 50.101562 26.726562 L 50.0625 26.699219 C 50.222656 26.609375 49.953125 26.472656 49.671875 26.371094 Z M 50.152344 26.757812 L 50.359375 26.914062 C 50.417969 26.882812 50.28125 26.839844 50.152344 26.757812 Z M 47.328125 14.988281 L 47.257812 15.148438 L 47.613281 15.1875 C 47.425781 15.097656 47.421875 15.070312 47.328125 14.988281 Z M 41.882812 57.816406 L 41.917969 57.824219 C 42.089844 57.753906 42.011719 57.765625 41.882812 57.816406 Z M 60.980469 16.480469 C 60.753906 16.390625 60.503906 16.320312 60.265625 16.246094 L 60.738281 16.523438 Z M 30.40625 54.5 L 30.644531 54.519531 C 30.375 54.335938 30.460938 54.460938 30.40625 54.5 Z M 50.722656 26.65625 L 50.855469 26.808594 L 50.949219 26.738281 Z M 53.511719 50.511719 L 53.550781 50.472656 Z M 56.53125 14.863281 L 56.359375 14.699219 L 55.890625 14.40625 C 56.109375 14.554688 56.328125 14.695312 56.53125 14.863281 Z M 57.457031 44.003906 C 57.472656 43.941406 57.480469 43.84375 57.503906 43.667969 C 57.492188 43.75 57.46875 43.882812 57.457031 44.003906 Z M 65.027344 20.550781 C 65.320312 20.707031 64.929688 20.109375 65.191406 20.304688 C 64.855469 19.941406 64.503906 19.679688 64.1875 19.464844 C 64.492188 19.726562 64.753906 20.066406 65.027344 20.550781 Z M 43.917969 58.390625 L 43.796875 58.382812 C 44.050781 58.28125 43.988281 58.335938 43.917969 58.390625 Z M 63.65625 19.089844 C 63.8125 19.21875 63.992188 19.335938 64.191406 19.464844 C 64.019531 19.328125 63.84375 19.199219 63.65625 19.089844 Z M 66.066406 21.875 L 65.910156 21.757812 L 66.054688 21.878906 Z M 30.355469 54.492188 L 30.375 54.507812 L 30.40625 54.496094 Z M 54.332031 17.949219 L 53.917969 17.695312 C 54.109375 17.824219 54.300781 17.945312 54.484375 18.082031 Z M 53.34375 17.015625 L 53.214844 17.015625 Z M 52.433594 16.742188 L 53.027344 17.101562 L 53.210938 17.144531 C 52.839844 16.941406 52.441406 16.699219 52.433594 16.742188 Z M 55.972656 18.648438 L 56.296875 18.882812 C 56.375 18.859375 56.171875 18.773438 55.972656 18.648438 Z M 53.210938 17.144531 C 53.402344 17.25 53.578125 17.359375 53.699219 17.402344 C 53.59375 17.339844 53.371094 17.210938 53.210938 17.144531 Z M 61.117188 23.484375 L 60.96875 23.328125 L 61.066406 23.507812 Z M 55.207031 18.054688 C 55.179688 18.183594 55.535156 18.347656 55.890625 18.59375 L 55.832031 18.542969 C 56.027344 18.488281 55.621094 18.257812 55.207031 18.054688 Z M 58.882812 21.507812 L 58.910156 21.445312 C 58.640625 21.183594 58.410156 21.035156 58.671875 21.324219 Z M 55.285156 18.5625 L 55.234375 18.359375 L 54.972656 18.320312 Z M 55.285156 18.5625 " fill-opacity="1" fill-rule="nonzero"/></g><g clip-path="url(#5d2ca2bbbf)"><path fill="#004aad" d="M 77.414062 19.539062 C 77.636719 19.65625 77.890625 19.753906 78.089844 19.917969 C 78.015625 19.753906 77.40625 19.382812 77.648438 19.496094 C 76.917969 19.132812 77.042969 19.289062 77.414062 19.539062 Z M 77.414062 19.539062 " fill-opacity="1" fill-rule="nonzero"/></g><g clip-path="url(#668e0df1a9)"><path fill="#004aad" d="M 76.707031 19.382812 L 77.070312 19.503906 C 77.015625 19.460938 76.921875 19.414062 76.707031 19.382812 Z M 76.707031 19.382812 " fill-opacity="1" fill-rule="nonzero"/></g><g clip-path="url(#85fdcc7c85)"><path fill="#004aad" d="M 77.816406 19.859375 C 77.566406 19.738281 77.339844 19.5625 77.070312 19.503906 C 77.160156 19.585938 77.144531 19.613281 77.414062 19.652344 C 77.328125 19.667969 77.496094 19.703125 77.816406 19.859375 Z M 77.816406 19.859375 " fill-opacity="1" fill-rule="nonzero"/></g><path fill="#004aad" d="M 73.082031 19.511719 L 73.371094 19.601562 L 73.789062 19.414062 C 73.554688 19.453125 73.128906 19.5625 73.082031 19.511719 Z M 73.082031 19.511719 " fill-opacity="1" fill-rule="nonzero"/><path fill="#004aad" d="M 73.371094 19.601562 L 72.746094 19.878906 C 73.324219 19.703125 73.421875 19.632812 73.371094 19.601562 Z M 73.371094 19.601562 " fill-opacity="1" fill-rule="nonzero"/><g clip-path="url(#8751461005)"><path fill="#004aad" d="M 76.519531 19.554688 C 76.933594 19.644531 77.347656 19.777344 77.734375 19.996094 C 77.277344 19.742188 76.785156 19.554688 76.28125 19.507812 Z M 76.519531 19.554688 " fill-opacity="1" fill-rule="nonzero"/></g><path fill="#004aad" d="M 70.621094 20.304688 L 70.957031 20.089844 L 70.355469 20.441406 Z M 70.621094 20.304688 " fill-opacity="1" fill-rule="nonzero"/><path fill="#004aad" d="M 68.996094 20.847656 C 69.238281 20.675781 68.585938 20.832031 68.855469 20.6875 C 68.417969 20.847656 68.0625 21.035156 67.734375 21.207031 C 68.09375 21.054688 68.476562 20.941406 68.996094 20.847656 Z M 68.996094 20.847656 " fill-opacity="1" fill-rule="nonzero"/><path fill="#004aad" d="M 67.191406 21.476562 C 67.371094 21.398438 67.550781 21.304688 67.734375 21.207031 C 67.550781 21.289062 67.371094 21.371094 67.191406 21.476562 Z M 67.191406 21.476562 " fill-opacity="1" fill-rule="nonzero"/><path fill="#004aad" d="M 71.648438 20.210938 C 71.585938 20.199219 71.46875 20.167969 71.101562 20.253906 L 71.390625 20.289062 Z M 71.648438 20.210938 " fill-opacity="1" fill-rule="nonzero"/><path fill="#004aad" d="M 71.398438 20.289062 L 71.390625 20.289062 C 71.113281 20.375 70.925781 20.433594 70.847656 20.460938 C 70.917969 20.4375 71.085938 20.390625 71.398438 20.289062 Z M 71.398438 20.289062 " fill-opacity="1" fill-rule="nonzero"/><path fill="#004aad" d="M 71.710938 20.183594 L 71.648438 20.210938 Z M 71.710938 20.183594 " fill-opacity="1" fill-rule="nonzero"/><path fill="#004aad" d="M 74.492188 19.453125 C 74.097656 19.636719 73.363281 19.957031 74.148438 19.808594 C 74.402344 19.648438 73.917969 19.726562 74.492188 19.453125 Z M 74.492188 19.453125 " fill-opacity="1" fill-rule="nonzero"/><path fill="#004aad" d="M 72.074219 20.234375 L 72.761719 20.035156 C 72.738281 20.011719 72.605469 20.007812 72.777344 19.917969 Z M 72.074219 20.234375 " fill-opacity="1" fill-rule="nonzero"/><path fill="#004aad" d="M 71.746094 20.371094 L 72.074219 20.234375 L 71.816406 20.304688 Z M 71.746094 20.371094 " fill-opacity="1" fill-rule="nonzero"/><path fill="#004aad" d="M 68.398438 21.214844 C 68.117188 21.351562 67.796875 21.460938 67.441406 21.589844 C 67.832031 21.492188 68.246094 21.367188 68.625 21.242188 C 68.671875 21.1875 68.820312 21.070312 68.398438 21.214844 Z M 68.398438 21.214844 " fill-opacity="1" fill-rule="nonzero"/><path fill="#004aad" d="M 69.859375 20.773438 L 69.796875 20.796875 Z M 69.859375 20.773438 " fill-opacity="1" fill-rule="nonzero"/><path fill="#004aad" d="M 63.84375 22.742188 L 63.914062 22.742188 L 63.917969 22.726562 Z M 63.84375 22.742188 " fill-opacity="1" fill-rule="nonzero"/><path fill="#004aad" d="M 68.699219 21.242188 C 69 21.175781 69.167969 21.085938 69.324219 20.996094 C 69.105469 21.082031 68.875 21.164062 68.625 21.242188 Z M 68.699219 21.242188 " fill-opacity="1" fill-rule="nonzero"/><path fill="#004aad" d="M 66.210938 21.855469 C 66.371094 21.832031 66.550781 21.796875 66.738281 21.757812 C 66.578125 21.765625 66.253906 21.804688 66.210938 21.855469 Z M 66.210938 21.855469 " fill-opacity="1" fill-rule="nonzero"/><path fill="#004aad" d="M 69.691406 20.796875 L 69.730469 20.78125 Z M 69.691406 20.796875 " fill-opacity="1" fill-rule="nonzero"/><path fill="#004aad" d="M 69.691406 20.796875 C 69.542969 20.867188 69.4375 20.933594 69.324219 20.996094 C 69.5 20.925781 69.664062 20.867188 69.800781 20.796875 Z M 69.691406 20.796875 " fill-opacity="1" fill-rule="nonzero"/><path fill="#004aad" d="M 62.992188 23.832031 C 63.015625 23.710938 63.753906 23.359375 64.457031 23.257812 C 65.085938 22.96875 64.542969 22.757812 63.914062 22.742188 C 63.902344 22.804688 63.925781 22.84375 63.261719 23.121094 C 63.515625 23.105469 64.808594 22.773438 64.269531 23.050781 C 63.390625 23.398438 63.523438 23.253906 63.070312 23.335938 C 63.484375 23.347656 61.996094 23.898438 62.253906 24.027344 L 63.015625 23.710938 C 63.039062 23.730469 62.765625 23.875 62.992188 23.832031 Z M 62.992188 23.832031 " fill-opacity="1" fill-rule="nonzero"/><path fill="#004aad" d="M 65.199219 22.34375 L 65.472656 22.238281 C 65.148438 22.324219 64.910156 22.351562 64.464844 22.410156 C 64.019531 22.605469 63.9375 22.675781 63.917969 22.722656 L 65.289062 22.296875 Z M 65.199219 22.34375 " fill-opacity="1" fill-rule="nonzero"/><path fill="#004aad" d="M 66.71875 21.835938 C 66.539062 22.023438 65.886719 22.289062 66.34375 22.28125 C 67.152344 22.011719 66.878906 22 67.351562 21.796875 C 66.046875 22.246094 67.707031 21.605469 66.738281 21.84375 C 66.984375 21.742188 67.21875 21.664062 67.441406 21.585938 L 66.738281 21.753906 L 66.773438 21.746094 L 66.777344 21.746094 L 66.796875 21.765625 L 66.769531 21.773438 L 66.71875 21.835938 C 66.332031 21.933594 66.648438 21.824219 66.769531 21.777344 L 66.777344 21.75 L 66.773438 21.75 L 65.472656 22.242188 C 65.757812 22.164062 66.109375 22.050781 66.71875 21.835938 Z M 66.71875 21.835938 " fill-opacity="1" fill-rule="nonzero"/><path fill="#004aad" d="M 73.523438 20.285156 L 73.472656 20.273438 C 73.390625 20.316406 73.367188 20.332031 73.523438 20.285156 Z M 73.523438 20.285156 " fill-opacity="1" fill-rule="nonzero"/><path fill="#004aad" d="M 72.960938 20.394531 C 73.046875 20.339844 73.113281 20.273438 73.429688 20.183594 C 73.710938 20.128906 73.445312 20.238281 73.476562 20.273438 C 73.652344 20.183594 74.109375 19.976562 73.496094 20.113281 L 73.40625 20.15625 C 72.863281 20.289062 72.136719 20.363281 72.222656 20.320312 C 72.414062 20.371094 72.570312 20.402344 72.960938 20.394531 Z M 72.960938 20.394531 " fill-opacity="1" fill-rule="nonzero"/><path fill="#004aad" d="M 63.707031 22.726562 L 63.8125 22.554688 L 63.230469 22.933594 Z M 63.707031 22.726562 " fill-opacity="1" fill-rule="nonzero"/><path fill="#004aad" d="M 62.28125 23.203125 L 62.300781 23.078125 L 61.945312 23.265625 Z M 62.28125 23.203125 " fill-opacity="1" fill-rule="nonzero"/><path fill="#004aad" d="M 7.953125 58.953125 L 8.269531 58.820312 C 8.121094 58.878906 8.023438 58.917969 7.953125 58.953125 Z M 7.953125 58.953125 " fill-opacity="1" fill-rule="nonzero"/><g clip-path="url(#74366cc691)"><path fill="#004aad" d="M 5.96875 59.097656 L 5.90625 59.128906 Z M 5.96875 59.097656 " fill-opacity="1" fill-rule="nonzero"/></g><path fill="#004aad" d="M 27.25 34.511719 C 26.75 34.558594 26.175781 34.574219 26.269531 34.675781 L 26.453125 34.746094 C 26.769531 34.617188 27.027344 34.546875 27.25 34.511719 Z M 27.25 34.511719 " fill-opacity="1" fill-rule="nonzero"/><path fill="#004aad" d="M 20.664062 54.71875 L 21.003906 54.476562 C 20.417969 54.671875 20.695312 54.640625 20.664062 54.71875 Z M 20.664062 54.71875 " fill-opacity="1" fill-rule="nonzero"/><path fill="#004aad" d="M 47.683594 27.953125 C 47.269531 28.039062 46.9375 28.125 46.652344 28.210938 C 47.15625 28.117188 47.585938 28.09375 47.683594 27.953125 Z M 47.683594 27.953125 " fill-opacity="1" fill-rule="nonzero"/><path fill="#004aad" d="M 7.332031 60.464844 C 7.574219 60.390625 7.664062 60.339844 7.65625 60.320312 C 7.414062 60.390625 7.28125 60.445312 7.332031 60.464844 Z M 7.332031 60.464844 " fill-opacity="1" fill-rule="nonzero"/><path fill="#004aad" d="M 45.476562 28.585938 L 45.703125 28.546875 C 45.996094 28.433594 46.285156 28.320312 46.652344 28.210938 C 46.277344 28.277344 45.851562 28.378906 45.476562 28.585938 Z M 45.476562 28.585938 " fill-opacity="1" fill-rule="nonzero"/><path fill="#004aad" d="M 66.949219 39.902344 L 67.058594 39.882812 Z M 66.949219 39.902344 " fill-opacity="1" fill-rule="nonzero"/><path fill="#004aad" d="M 58.144531 24.988281 L 58.042969 25.085938 Z M 58.144531 24.988281 " fill-opacity="1" fill-rule="nonzero"/><path fill="#004aad" d="M 42.707031 30.285156 L 42.675781 30.292969 Z M 42.707031 30.285156 " fill-opacity="1" fill-rule="nonzero"/><path fill="#004aad" d="M 57 24.90625 C 56.882812 24.925781 56.742188 24.957031 56.605469 24.996094 C 56.664062 24.988281 56.785156 24.957031 57 24.90625 Z M 57 24.90625 " fill-opacity="1" fill-rule="nonzero"/><path fill="#004aad" d="M 56.917969 24.871094 L 57.1875 24.796875 C 57.21875 24.769531 57.183594 24.765625 56.917969 24.871094 Z M 56.917969 24.871094 " fill-opacity="1" fill-rule="nonzero"/><path fill="#004aad" d="M 56.109375 25.144531 L 56.605469 24.996094 L 56.523438 25 C 56.4375 25.035156 56.3125 25.074219 56.109375 25.144531 Z M 56.109375 25.144531 " fill-opacity="1" fill-rule="nonzero"/><path fill="#004aad" d="M 42.269531 48.203125 L 42.339844 48.199219 C 42.625 48.050781 42.496094 48.101562 42.269531 48.203125 Z M 42.269531 48.203125 " fill-opacity="1" fill-rule="nonzero"/><path fill="#004aad" d="M 19.765625 38.253906 L 19.800781 38.238281 L 19.757812 38.246094 Z M 19.765625 38.253906 " fill-opacity="1" fill-rule="nonzero"/><path fill="#004aad" d="M 18.707031 38.691406 C 19.125 38.402344 19.390625 38.332031 19.757812 38.246094 L 19.28125 38.027344 Z M 18.707031 38.691406 " fill-opacity="1" fill-rule="nonzero"/><path fill="#004aad" d="M 20.605469 54.757812 L 20.640625 54.75 L 20.664062 54.71875 Z M 20.605469 54.757812 " fill-opacity="1" fill-rule="nonzero"/><path fill="#004aad" d="M 38.78125 32.113281 C 38.566406 32.160156 38.441406 32.175781 38.355469 32.175781 C 38.355469 32.210938 38.457031 32.207031 38.78125 32.113281 Z M 38.78125 32.113281 " fill-opacity="1" fill-rule="nonzero"/><path fill="#004aad" d="M 59.636719 23.933594 L 58.992188 24.175781 C 59.308594 24.070312 59.429688 24.0625 59.597656 24.027344 C 59.574219 24.007812 59.433594 24 59.636719 23.933594 Z M 59.636719 23.933594 " fill-opacity="1" fill-rule="nonzero"/><path fill="#004aad" d="M 65.585938 22.902344 L 65.878906 22.789062 L 65.828125 22.734375 C 65.421875 22.871094 65.15625 23.011719 65.585938 22.902344 Z M 65.585938 22.902344 " fill-opacity="1" fill-rule="nonzero"/><path fill="#004aad" d="M 60.378906 24.167969 C 60.46875 24.261719 60.871094 24.085938 61.324219 23.921875 L 61.238281 23.949219 C 61.324219 23.75 60.851562 23.960938 60.378906 24.167969 Z M 60.378906 24.167969 " fill-opacity="1" fill-rule="nonzero"/><path fill="#004aad" d="M 61.429688 23.886719 L 61.847656 23.75 C 61.890625 23.667969 61.675781 23.789062 61.429688 23.886719 Z M 61.429688 23.886719 " fill-opacity="1" fill-rule="nonzero"/><path fill="#004aad" d="M 55.5625 25.410156 C 55.789062 25.371094 55.648438 25.226562 55.789062 25.234375 C 55.992188 25.015625 54.386719 25.863281 55.5625 25.410156 Z M 55.5625 25.410156 " fill-opacity="1" fill-rule="nonzero"/><path fill="#004aad" d="M 60.871094 24.410156 L 60.664062 24.324219 L 60.433594 24.519531 Z M 60.871094 24.410156 " fill-opacity="1" fill-rule="nonzero"/><path fill="#004aad" d="M 57.21875 25.480469 L 57.957031 25.277344 L 58.136719 25.171875 C 57.6875 25.3125 57.183594 25.441406 57.21875 25.480469 Z M 57.21875 25.480469 " fill-opacity="1" fill-rule="nonzero"/><path fill="#004aad" d="M 58.136719 25.171875 C 58.375 25.09375 58.597656 25.023438 58.726562 24.957031 C 58.597656 25 58.328125 25.09375 58.136719 25.171875 Z M 58.136719 25.171875 " fill-opacity="1" fill-rule="nonzero"/><path fill="#004aad" d="M 59.878906 24.777344 L 59.652344 24.8125 L 59.128906 24.96875 Z M 59.878906 24.777344 " fill-opacity="1" fill-rule="nonzero"/><path fill="#004aad" d="M 49.3125 27.996094 L 48.527344 28.289062 C 48.464844 28.363281 48.691406 28.324219 48.984375 28.207031 C 49.164062 28.113281 49.449219 27.996094 49.3125 27.996094 Z M 49.3125 27.996094 " fill-opacity="1" fill-rule="nonzero"/><path fill="#004aad" d="M 51.855469 27.585938 C 51.632812 27.625 51.605469 27.597656 51.46875 27.59375 L 51.5 27.773438 Z M 51.855469 27.585938 " fill-opacity="1" fill-rule="nonzero"/><path fill="#004aad" d="M 49.53125 28.375 C 49.472656 28.445312 48.414062 28.882812 49.425781 28.542969 C 49.492188 28.472656 50.28125 28.179688 49.53125 28.375 Z M 49.53125 28.375 " fill-opacity="1" fill-rule="nonzero"/><path fill="#004aad" d="M 37.398438 32.054688 L 37.601562 31.988281 L 37.484375 31.722656 Z M 37.398438 32.054688 " fill-opacity="1" fill-rule="nonzero"/><path fill="#004aad" d="M 26.972656 36.140625 C 27.941406 35.898438 27.144531 35.894531 28.023438 35.703125 C 28.234375 35.566406 27.300781 35.863281 27.519531 35.734375 C 26.96875 35.980469 26.652344 36.039062 26.972656 36.140625 Z M 26.972656 36.140625 " fill-opacity="1" fill-rule="nonzero"/><path fill="#004aad" d="M 27.519531 35.734375 L 27.796875 35.597656 C 27.632812 35.664062 27.5625 35.703125 27.519531 35.734375 Z M 27.519531 35.734375 " fill-opacity="1" fill-rule="nonzero"/><path fill="#004aad" d="M 8.667969 58.53125 L 8.527344 58.578125 L 8.84375 58.652344 Z M 8.667969 58.53125 " fill-opacity="1" fill-rule="nonzero"/><path fill="#004aad" d="M 15.550781 56.09375 C 15.261719 56.175781 14.941406 56.320312 14.65625 56.410156 C 15.261719 56.175781 15.6875 56.265625 15.550781 56.09375 Z M 15.550781 56.09375 " fill-opacity="1" fill-rule="nonzero"/><path fill="#004aad" d="M 65.726562 41.152344 C 65.613281 52.109375 58.527344 61.765625 48.09375 65.164062 C 42.78125 66.890625 37.191406 66.851562 31.917969 65.039062 C 26.820312 63.289062 22.328125 59.902344 19.253906 55.507812 L 19.027344 55.671875 C 22.128906 60.113281 26.671875 63.535156 31.828125 65.304688 C 37.15625 67.136719 42.8125 67.175781 48.179688 65.425781 C 58.726562 61.996094 65.890625 52.238281 66.007812 41.160156 Z M 65.726562 41.152344 " fill-opacity="1" fill-rule="nonzero"/><path fill="#004aad" d="M 14.699219 39.273438 C 15.023438 34.226562 16.820312 29.429688 19.894531 25.390625 C 23.042969 21.261719 27.324219 18.21875 32.28125 16.605469 C 42.03125 13.433594 52.695312 16.371094 59.433594 24.101562 L 59.652344 23.917969 C 52.835938 16.105469 42.058594 13.128906 32.191406 16.34375 C 27.183594 17.972656 22.847656 21.046875 19.664062 25.222656 C 16.550781 29.300781 14.742188 34.152344 14.417969 39.25 Z M 14.699219 39.273438 " fill-opacity="1" fill-rule="nonzero"/><path fill="#004aad" d="M 63.535156 33.234375 C 62.25 29.535156 60.148438 26.34375 57.5 23.785156 C 57.484375 23.769531 57.46875 23.753906 57.449219 23.738281 C 51.378906 17.90625 42.449219 15.417969 33.875 17.894531 L 33.859375 17.839844 L 32.316406 18.34375 L 32.332031 18.394531 C 28.355469 19.835938 24.976562 22.21875 22.359375 25.210938 C 19.625 28.34375 17.722656 32.132812 16.855469 36.203125 C 16.800781 36.460938 16.75 36.722656 16.703125 36.984375 C 16.699219 37.007812 16.695312 37.03125 16.691406 37.054688 C 16.054688 40.679688 16.230469 44.496094 17.363281 48.246094 C 17.410156 48.40625 17.464844 48.566406 17.515625 48.730469 C 18.625 52.136719 20.421875 55.136719 22.703125 57.617188 L 22.703125 57.621094 C 22.875 57.800781 23.046875 57.984375 23.21875 58.164062 C 23.253906 58.195312 23.285156 58.226562 23.316406 58.257812 C 26.476562 61.457031 30.46875 63.71875 34.816406 64.792969 C 38.820312 65.785156 43.125 65.765625 47.339844 64.550781 L 47.371094 64.652344 L 48.914062 64.144531 L 48.882812 64.046875 C 53.550781 62.355469 57.402344 59.355469 60.15625 55.601562 C 62.480469 52.441406 64.019531 48.738281 64.613281 44.828125 C 64.621094 44.785156 64.625 44.742188 64.632812 44.699219 C 64.671875 44.449219 64.703125 44.199219 64.734375 43.953125 C 65.117188 40.601562 64.804688 37.125 63.695312 33.710938 C 63.644531 33.554688 63.589844 33.394531 63.535156 33.234375 Z M 44.144531 54.734375 C 41.40625 55.730469 38.964844 57.1875 37.027344 58.964844 C 35.464844 57.464844 34.015625 55.652344 32.730469 53.605469 C 35.765625 52.136719 39.046875 50.804688 42.492188 49.652344 Z M 41.992188 48.105469 C 38.433594 49.296875 35.035156 50.683594 31.898438 52.207031 C 30.765625 50.203125 29.785156 48.011719 28.988281 45.683594 L 40.039062 42.089844 Z M 39.535156 40.546875 L 28.488281 44.136719 C 27.746094 41.652344 27.257812 39.171875 27.03125 36.773438 C 30.421875 36.164062 33.933594 35.292969 37.464844 34.179688 Z M 36.960938 32.636719 C 33.558594 33.710938 30.175781 34.554688 26.914062 35.148438 C 26.804688 32.804688 26.953125 30.5625 27.367188 28.503906 C 27.378906 28.453125 27.390625 28.402344 27.402344 28.355469 C 29.917969 28.597656 32.625 28.328125 35.308594 27.554688 Z M 32.847656 19.972656 L 34.804688 26.003906 C 32.378906 26.699219 29.980469 26.933594 27.800781 26.761719 C 28.800781 23.394531 30.546875 21.039062 32.847656 19.972656 Z M 27.917969 22.449219 C 27.195312 23.625 26.613281 25 26.171875 26.550781 C 25.367188 26.40625 24.605469 26.195312 23.894531 25.929688 C 25.082031 24.628906 26.429688 23.457031 27.917969 22.449219 Z M 22.796875 27.230469 C 23.3125 27.445312 23.851562 27.636719 24.425781 27.800781 C 24.871094 27.925781 25.328125 28.03125 25.789062 28.121094 C 25.789062 28.140625 25.78125 28.160156 25.777344 28.179688 C 25.324219 30.425781 25.167969 32.867188 25.300781 35.421875 C 22.960938 35.792969 20.695312 36.035156 18.53125 36.144531 C 19.285156 32.894531 20.746094 29.847656 22.796875 27.230469 Z M 18.214844 37.785156 C 20.515625 37.6875 22.933594 37.4375 25.425781 37.046875 C 25.671875 39.53125 26.179688 42.085938 26.945312 44.640625 L 18.78125 47.292969 C 17.894531 44.109375 17.734375 40.875 18.214844 37.785156 Z M 19.273438 48.84375 L 27.441406 46.183594 C 28.261719 48.582031 29.273438 50.855469 30.441406 52.933594 C 28.140625 54.113281 26 55.371094 24.046875 56.683594 C 21.988281 54.484375 20.339844 51.84375 19.273438 48.84375 Z M 33.925781 62.863281 C 30.699219 61.859375 27.71875 60.152344 25.222656 57.847656 C 27.074219 56.621094 29.101562 55.441406 31.269531 54.332031 C 32.644531 56.539062 34.203125 58.496094 35.886719 60.117188 C 35.644531 60.382812 35.414062 60.65625 35.195312 60.929688 C 34.699219 61.566406 34.277344 62.214844 33.925781 62.863281 Z M 35.539062 63.300781 C 35.957031 62.578125 36.476562 61.871094 37.089844 61.195312 C 38.511719 62.382812 39.949219 63.277344 41.382812 63.871094 C 39.394531 63.9375 37.433594 63.738281 35.539062 63.300781 Z M 38.246094 60.042969 C 39.949219 58.515625 42.132812 57.199219 44.648438 56.28125 L 46.824219 62.972656 C 44.1875 63.492188 41.199219 62.472656 38.246094 60.042969 Z M 61.832031 33.296875 L 53.664062 35.949219 C 52.785156 33.433594 51.691406 31.066406 50.429688 28.914062 C 52.675781 27.769531 54.773438 26.546875 56.695312 25.269531 C 58.902344 27.492188 60.675781 30.199219 61.832031 33.296875 Z M 46.78125 19.429688 C 49.984375 20.339844 52.953125 21.949219 55.476562 24.132812 C 53.660156 25.316406 51.683594 26.457031 49.574219 27.527344 C 48.183594 25.386719 46.617188 23.5 44.933594 21.953125 C 44.917969 21.941406 44.902344 21.929688 44.886719 21.914062 C 45.210938 21.566406 45.519531 21.214844 45.804688 20.847656 C 46.167969 20.382812 46.496094 19.910156 46.78125 19.429688 Z M 45.128906 19.027344 C 44.710938 19.660156 44.21875 20.277344 43.652344 20.867188 C 42.386719 19.871094 41.105469 19.101562 39.835938 18.578125 C 41.625 18.515625 43.402344 18.671875 45.128906 19.027344 Z M 34.386719 19.472656 C 36.875 18.980469 39.671875 19.859375 42.460938 22 C 40.800781 23.417969 38.726562 24.640625 36.351562 25.507812 Z M 36.851562 27.050781 C 39.476562 26.097656 41.824219 24.71875 43.71875 23.046875 C 43.757812 23.078125 43.792969 23.113281 43.832031 23.148438 C 45.378906 24.570312 46.820312 26.296875 48.105469 28.253906 C 45.117188 29.691406 41.890625 31 38.507812 32.132812 Z M 39.007812 33.679688 C 42.519531 32.503906 45.867188 31.140625 48.972656 29.640625 C 50.195312 31.714844 51.261719 34.011719 52.121094 36.457031 L 41.078125 40.046875 Z M 41.578125 41.589844 L 52.628906 37.996094 C 53.351562 40.347656 53.847656 42.699219 54.113281 44.984375 C 50.675781 45.597656 47.113281 46.476562 43.535156 47.601562 Z M 44.035156 49.148438 C 47.5 48.058594 50.941406 47.203125 54.261719 46.605469 C 54.425781 49.019531 54.316406 51.335938 53.933594 53.46875 C 51.324219 53.167969 48.492188 53.421875 45.691406 54.230469 Z M 48.371094 62.472656 L 46.191406 55.777344 C 48.765625 55.046875 51.304688 54.824219 53.585938 55.058594 C 52.625 58.757812 50.808594 61.339844 48.371094 62.472656 Z M 53.296875 59.996094 C 54.105469 58.671875 54.75 57.101562 55.199219 55.304688 C 56.09375 55.496094 56.925781 55.757812 57.691406 56.09375 C 56.414062 57.566406 54.945312 58.878906 53.296875 59.996094 Z M 58.738281 54.800781 C 58.066406 54.480469 57.347656 54.207031 56.574219 53.984375 C 56.234375 53.886719 55.890625 53.808594 55.539062 53.730469 C 55.949219 51.429688 56.058594 48.933594 55.867188 46.335938 C 58.273438 45.960938 60.609375 45.71875 62.828125 45.621094 C 62.164062 48.953125 60.757812 52.089844 58.738281 54.800781 Z M 63.09375 43.988281 C 60.742188 44.074219 58.269531 44.320312 55.714844 44.71875 C 55.4375 42.347656 54.921875 39.917969 54.171875 37.492188 L 62.347656 34.839844 C 63.242188 37.894531 63.464844 41 63.09375 43.988281 Z M 63.09375 43.988281 " fill-opacity="1" fill-rule="nonzero"/><g fill="#052b5f" fill-opacity="1"><g transform="translate(6.850448, 59.305147)"><g><path d="M 3.890625 -15.609375 C 2.703125 -15.222656 1.90625 -14.453125 1.5 -13.296875 C 1.101562 -12.148438 1.1875 -10.71875 1.75 -9 C 2.269531 -7.382812 3.015625 -6.210938 3.984375 -5.484375 C 4.960938 -4.753906 6.054688 -4.582031 7.265625 -4.96875 C 8.160156 -5.257812 8.820312 -5.742188 9.25 -6.421875 C 9.675781 -7.109375 9.835938 -7.957031 9.734375 -8.96875 L 12.9375 -10 C 13.175781 -8.0625 12.867188 -6.414062 12.015625 -5.0625 C 11.160156 -3.707031 9.851562 -2.742188 8.09375 -2.171875 C 6.664062 -1.710938 5.316406 -1.632812 4.046875 -1.9375 C 2.785156 -2.25 1.671875 -2.914062 0.703125 -3.9375 C -0.253906 -4.957031 -1.003906 -6.300781 -1.546875 -7.96875 C -2.078125 -9.625 -2.242188 -11.15625 -2.046875 -12.5625 C -1.847656 -13.976562 -1.316406 -15.1875 -0.453125 -16.1875 C 0.398438 -17.1875 1.523438 -17.910156 2.921875 -18.359375 C 4.128906 -18.753906 5.289062 -18.875 6.40625 -18.71875 C 7.53125 -18.5625 8.515625 -18.164062 9.359375 -17.53125 C 10.210938 -16.90625 10.859375 -16.085938 11.296875 -15.078125 L 8.09375 -14.046875 C 7.101562 -15.671875 5.703125 -16.191406 3.890625 -15.609375 Z M 3.890625 -15.609375 "/></g></g></g><g fill="#052b5f" fill-opacity="1"><g transform="translate(22.309668, 54.299809)"><g><path d="M 11.578125 -6.828125 L 12.484375 -4.046875 L 1.625 -0.53125 L -3.359375 -15.90625 L -0.15625 -16.9375 L 3.921875 -4.34375 Z M 11.578125 -6.828125 "/></g></g></g><g fill="#052b5f" fill-opacity="1"><g transform="translate(35.392189, 50.063991)"><g><path d="M 8.453125 -2.28125 C 7.023438 -1.820312 5.660156 -1.710938 4.359375 -1.953125 C 3.054688 -2.203125 1.882812 -2.828125 0.84375 -3.828125 C -0.1875 -4.835938 -0.984375 -6.222656 -1.546875 -7.984375 C -2.109375 -9.703125 -2.269531 -11.273438 -2.03125 -12.703125 C -1.800781 -14.128906 -1.226562 -15.328125 -0.3125 -16.296875 C 0.601562 -17.273438 1.78125 -17.992188 3.21875 -18.453125 C 4.664062 -18.921875 6.046875 -19.023438 7.359375 -18.765625 C 8.671875 -18.503906 9.835938 -17.867188 10.859375 -16.859375 C 11.878906 -15.847656 12.671875 -14.488281 13.234375 -12.78125 C 13.796875 -11.03125 13.957031 -9.441406 13.71875 -8.015625 C 13.476562 -6.585938 12.894531 -5.390625 11.96875 -4.421875 C 11.039062 -3.460938 9.867188 -2.75 8.453125 -2.28125 Z M 10.015625 -11.734375 C 9.453125 -13.441406 8.640625 -14.640625 7.578125 -15.328125 C 6.523438 -16.015625 5.363281 -16.148438 4.09375 -15.734375 C 2.84375 -15.328125 1.984375 -14.535156 1.515625 -13.359375 C 1.046875 -12.179688 1.09375 -10.738281 1.65625 -9.03125 C 2.207031 -7.3125 3.015625 -6.109375 4.078125 -5.421875 C 5.140625 -4.734375 6.304688 -4.59375 7.578125 -5 C 8.847656 -5.414062 9.707031 -6.210938 10.15625 -7.390625 C 10.613281 -8.566406 10.566406 -10.015625 10.015625 -11.734375 Z M 10.015625 -11.734375 "/></g></g></g><g fill="#052b5f" fill-opacity="1"><g transform="translate(52.050463, 44.670426)"><g><path d="M 2.5 -15.3125 C 1.707031 -15.050781 1.117188 -14.671875 0.734375 -14.171875 C 0.347656 -13.671875 0.242188 -13.144531 0.421875 -12.59375 C 0.554688 -12.175781 0.78125 -11.875 1.09375 -11.6875 C 1.40625 -11.507812 1.96875 -11.457031 2.78125 -11.53125 L 6.671875 -11.8125 C 8.273438 -11.9375 9.472656 -11.753906 10.265625 -11.265625 C 11.066406 -10.785156 11.632812 -10.023438 11.96875 -8.984375 C 12.320312 -7.878906 12.351562 -6.863281 12.0625 -5.9375 C 11.769531 -5.019531 11.222656 -4.222656 10.421875 -3.546875 C 9.628906 -2.878906 8.660156 -2.359375 7.515625 -1.984375 C 5.484375 -1.328125 3.757812 -1.238281 2.34375 -1.71875 C 0.925781 -2.207031 -0.0859375 -3.300781 -0.703125 -5 L 2.390625 -6 C 2.660156 -5.21875 3.144531 -4.703125 3.84375 -4.453125 C 4.550781 -4.203125 5.414062 -4.238281 6.4375 -4.5625 C 7.476562 -4.90625 8.21875 -5.328125 8.65625 -5.828125 C 9.101562 -6.328125 9.21875 -6.914062 9 -7.59375 C 8.863281 -8.019531 8.609375 -8.304688 8.234375 -8.453125 C 7.867188 -8.609375 7.3125 -8.675781 6.5625 -8.65625 C 5.8125 -8.632812 4.578125 -8.546875 2.859375 -8.390625 C 1.367188 -8.234375 0.195312 -8.398438 -0.65625 -8.890625 C -1.507812 -9.378906 -2.128906 -10.210938 -2.515625 -11.390625 C -2.804688 -12.296875 -2.847656 -13.175781 -2.640625 -14.03125 C -2.441406 -14.882812 -1.960938 -15.65625 -1.203125 -16.34375 C -0.453125 -17.039062 0.566406 -17.597656 1.859375 -18.015625 C 3.046875 -18.398438 4.148438 -18.535156 5.171875 -18.421875 C 6.203125 -18.304688 7.085938 -17.957031 7.828125 -17.375 C 8.578125 -16.789062 9.128906 -16.003906 9.484375 -15.015625 L 6.390625 -14.015625 C 5.742188 -15.515625 4.445312 -15.945312 2.5 -15.3125 Z M 2.5 -15.3125 "/></g></g></g><g fill="#052b5f" fill-opacity="1"><g transform="translate(66.332038, 40.046383)"><g><path d="M 0.671875 -14.203125 L 1.71875 -10.96875 L 9.21875 -13.390625 L 10.09375 -10.671875 L 2.59375 -8.25 L 3.890625 -4.265625 L 12.421875 -7.015625 L 13.296875 -4.296875 L 1.625 -0.53125 L -3.359375 -15.90625 L 7.953125 -19.5625 L 8.84375 -16.84375 Z M 0.671875 -14.203125 "/></g></g></g></svg>